<svg width="48" height="48" viewBox="0 0 48 48" fill="none" xmlns="http://www.w3.org/2000/svg">
<path fill-rule="evenodd" clip-rule="evenodd" d="M22.3762 35.7058L11.6832 30.7626C10.7723 30.331 10.7723 29.6641 11.6832 29.2718L15.4059 27.5456L22.3366 30.7626C23.2475 31.1941 24.7129 31.1941 25.5842 30.7626L32.5149 27.5456L36.2376 29.2718C37.1485 29.7033 37.1485 30.3703 36.2376 30.7626L25.5446 35.7058C24.7129 36.0981 23.2475 36.0981 22.3762 35.7058Z" fill="#FF6F3D"/>
<path fill-rule="evenodd" clip-rule="evenodd" d="M22.3762 29.6249L11.6832 24.6817C10.7723 24.2501 10.7723 23.5832 11.6832 23.1909L15.3267 21.5039L22.3762 24.7601C23.2871 25.1917 24.7525 25.1917 25.6238 24.7601L32.6733 21.5039L36.3168 23.1909C37.2277 23.6224 37.2277 24.2894 36.3168 24.6817L25.6238 29.6249C24.7129 30.0564 23.2475 30.0564 22.3762 29.6249Z" fill="#95C038"/>
<path fill-rule="evenodd" clip-rule="evenodd" d="M22.3762 23.7009L11.6832 18.7577C10.7723 18.3261 10.7723 17.6592 11.6832 17.2669L22.3762 12.3237C23.2871 11.8921 24.7525 11.8921 25.6238 12.3237L36.3168 17.2669C37.2277 17.6984 37.2277 18.3654 36.3168 18.7577L25.6238 23.7009C24.7129 24.0932 23.2475 24.0932 22.3762 23.7009Z" fill="#5DC0E8"/>
</svg>
