<svg width="64" height="60" viewBox="0 0 64 60" fill="none" xmlns="http://www.w3.org/2000/svg">
<path fill-rule="evenodd" clip-rule="evenodd" d="M28.0886 59.2647L1.68678 46.9122C-0.562261 45.8338 -0.562261 44.1672 1.68678 43.1868L10.8785 38.8732L27.9908 46.9122C30.2399 47.9906 33.8579 47.9906 36.0092 46.9122L53.1215 38.8732L62.3132 43.1868C64.5623 44.2652 64.5623 45.9318 62.3132 46.9122L35.9114 59.2647C33.8579 60.2451 30.2399 60.2451 28.0886 59.2647Z" fill="#FF6F3D"/>
<path fill-rule="evenodd" clip-rule="evenodd" d="M28.003 43.979L1.68165 31.6121C-0.560548 30.5325 -0.560548 28.8639 1.68165 27.8824L10.6504 23.662L28.003 31.8084C30.2452 32.8881 33.8523 32.8881 35.997 31.8084L53.3496 23.662L62.3184 27.8824C64.5605 28.9621 64.5605 30.6306 62.3184 31.6121L35.997 43.979C33.7548 45.0586 30.1478 45.0586 28.003 43.979Z" fill="#95C038"/>
<path fill-rule="evenodd" clip-rule="evenodd" d="M28.003 28.8519L1.68165 16.663C-0.560548 15.5989 -0.560548 13.9544 1.68165 12.987L28.003 0.798084C30.2452 -0.266028 33.8523 -0.266028 35.997 0.798084L62.3184 12.987C64.5605 14.0511 64.5605 15.6956 62.3184 16.663L35.997 28.8519C33.7548 29.8193 30.1478 29.8193 28.003 28.8519Z" fill="#5DC0E8"/>
</svg>
