<svg width="96" height="96" viewBox="0 0 96 96" fill="none" xmlns="http://www.w3.org/2000/svg">
<g clip-path="url(#clip0)">
<path d="M10 1H57L86 30V95H10V1Z" fill="white"/>
<path fill-rule="evenodd" clip-rule="evenodd" d="M23 58C21.3431 58 20 59.3431 20 61V86C20 87.6569 21.3431 89 23 89H73C74.6569 89 76 87.6569 76 86V61C76 59.3431 74.6569 58 73 58H23ZM37.2439 75.2627L39.7664 76.0625C39.3797 77.4688 38.7352 78.5146 37.8328 79.2002C36.9363 79.8799 35.7967 80.2197 34.4139 80.2197C32.7029 80.2197 31.2967 79.6367 30.1951 78.4707C29.0936 77.2988 28.5428 75.6992 28.5428 73.6719C28.5428 71.5273 29.0965 69.8633 30.2039 68.6797C31.3113 67.4902 32.7674 66.8955 34.5721 66.8955C36.1482 66.8955 37.4285 67.3613 38.4129 68.293C38.9988 68.8438 39.4383 69.6348 39.7312 70.666L37.1561 71.2812C37.0037 70.6133 36.6844 70.0859 36.198 69.6992C35.7176 69.3125 35.1316 69.1191 34.4402 69.1191C33.4852 69.1191 32.7088 69.4619 32.1111 70.1475C31.5193 70.833 31.2234 71.9434 31.2234 73.4785C31.2234 75.1074 31.5164 76.2676 32.1023 76.959C32.6883 77.6504 33.45 77.9961 34.3875 77.9961C35.0789 77.9961 35.6736 77.7764 36.1717 77.3369C36.6697 76.8975 37.0271 76.2061 37.2439 75.2627ZM43.1484 75.8076L45.6797 75.5615C45.832 76.4111 46.1396 77.0352 46.6025 77.4336C47.0713 77.832 47.7012 78.0312 48.4922 78.0312C49.3301 78.0312 49.96 77.8555 50.3818 77.5039C50.8096 77.1465 51.0234 76.7305 51.0234 76.2559C51.0234 75.9512 50.9326 75.6934 50.751 75.4824C50.5752 75.2656 50.2646 75.0781 49.8193 74.9199C49.5146 74.8145 48.8203 74.627 47.7363 74.3574C46.3418 74.0117 45.3633 73.5869 44.8008 73.083C44.0098 72.374 43.6143 71.5098 43.6143 70.4902C43.6143 69.834 43.7988 69.2217 44.168 68.6533C44.543 68.0791 45.0791 67.6426 45.7764 67.3438C46.4795 67.0449 47.3262 66.8955 48.3164 66.8955C49.9336 66.8955 51.1494 67.25 51.9639 67.959C52.7842 68.668 53.2148 69.6143 53.2559 70.7979L50.6543 70.9121C50.543 70.25 50.3027 69.7754 49.9336 69.4883C49.5703 69.1953 49.0225 69.0488 48.29 69.0488C47.5342 69.0488 46.9424 69.2041 46.5146 69.5146C46.2393 69.7139 46.1016 69.9805 46.1016 70.3145C46.1016 70.6191 46.2305 70.8799 46.4883 71.0967C46.8164 71.3721 47.6133 71.6592 48.8789 71.958C50.1445 72.2568 51.0791 72.5674 51.6826 72.8896C52.292 73.2061 52.7666 73.6426 53.1064 74.1992C53.4521 74.75 53.625 75.4326 53.625 76.2471C53.625 76.9854 53.4199 77.6768 53.0098 78.3213C52.5996 78.9658 52.0195 79.4463 51.2695 79.7627C50.5195 80.0732 49.585 80.2285 48.4658 80.2285C46.8369 80.2285 45.5859 79.8535 44.7129 79.1035C43.8398 78.3477 43.3184 77.249 43.1484 75.8076ZM56.2951 67.1152L60.9006 80H63.6779L68.2922 67.1152H65.5324L62.3771 76.6514L59.1164 67.1152H56.2951Z" fill="#6AAA1E"/>
<path d="M26 17H35V20H26V17Z" fill="#BFBFBF"/>
<path d="M35 29H26V32H35V29Z" fill="#BFBFBF"/>
<path d="M26 41H35V44H26V41Z" fill="#BFBFBF"/>
<path d="M43 41H70V44H43V41Z" fill="#BFBFBF"/>
<path fill-rule="evenodd" clip-rule="evenodd" d="M20 11H57V14H40V23H57V26H40V35H73V29H76V50H20V11ZM23 23V14H37V23H23ZM23 35V26H37V35H23ZM23 47V38H37V47H23ZM40 47V38H73V47H40Z" fill="#BFBFBF"/>
<path d="M70 29H43V32H70V29Z" fill="#BFBFBF"/>
<path d="M57 17V20H43V17H57Z" fill="#BFBFBF"/>
<path opacity="0.3" d="M56 30V1H57V29H86L87 30H56Z" fill="black"/>
</g>
<defs>
<clipPath id="clip0">
<rect width="96" height="96" fill="white"/>
</clipPath>
</defs>
</svg>
