<svg width="64" height="64" viewBox="0 0 64 64" fill="none" xmlns="http://www.w3.org/2000/svg">
<path d="M7 1H38L57 20V63H7V1Z" fill="white"/>
<path fill-rule="evenodd" clip-rule="evenodd" d="M7 63H57V20L38 1H7V63ZM38 0H6V64H58V20L38 0Z" fill="#BFBFBF"/>
<path fill-rule="evenodd" clip-rule="evenodd" d="M15 39C13.8954 39 13 39.8955 13 41V57C13 58.1045 13.8954 59 15 59H49C50.1046 59 51 58.1045 51 57V41C51 39.8955 50.1046 39 49 39H15ZM24.8293 50.8418L26.5109 51.375C26.2531 52.3125 25.8234 53.0098 25.2219 53.4668C24.6242 53.9199 23.8644 54.1465 22.9426 54.1465C21.8019 54.1465 20.8644 53.7578 20.1301 52.9805C19.3957 52.1992 19.0285 51.1328 19.0285 49.7812C19.0285 48.3516 19.3976 47.2422 20.1359 46.4531C20.8742 45.6602 21.8449 45.2637 23.048 45.2637C24.0988 45.2637 24.9523 45.5742 25.6086 46.1953C25.9992 46.5625 26.2922 47.0898 26.4875 47.7773L24.7707 48.1875C24.6691 47.7422 24.4562 47.3906 24.132 47.1328C23.8117 46.875 23.4211 46.7461 22.9601 46.7461C22.3234 46.7461 21.8058 46.9746 21.4074 47.4316C21.0129 47.8887 20.8156 48.6289 20.8156 49.6523C20.8156 50.7383 21.0109 51.5117 21.4016 51.9727C21.7922 52.4336 22.3 52.6641 22.925 52.6641C23.3859 52.6641 23.7824 52.5176 24.1144 52.2246C24.4465 51.9316 24.6848 51.4707 24.8293 50.8418ZM28.7656 51.2051L30.4531 51.041C30.5547 51.6074 30.7598 52.0234 31.0684 52.2891C31.3809 52.5547 31.8008 52.6875 32.3281 52.6875C32.8867 52.6875 33.3066 52.5703 33.5879 52.3359C33.873 52.0977 34.0156 51.8203 34.0156 51.5039C34.0156 51.3008 33.9551 51.1289 33.834 50.9883C33.7168 50.8438 33.5098 50.7188 33.2129 50.6133C33.0098 50.543 32.5469 50.418 31.8242 50.2383C30.8945 50.0078 30.2422 49.7246 29.8672 49.3887C29.3398 48.916 29.0762 48.3398 29.0762 47.6602C29.0762 47.2227 29.1992 46.8145 29.4453 46.4355C29.6953 46.0527 30.0527 45.7617 30.5176 45.5625C30.9863 45.3633 31.5508 45.2637 32.2109 45.2637C33.2891 45.2637 34.0996 45.5 34.6426 45.9727C35.1895 46.4453 35.4766 47.0762 35.5039 47.8652L33.7695 47.9414C33.6953 47.5 33.5352 47.1836 33.2891 46.9922C33.0469 46.7969 32.6816 46.6992 32.1934 46.6992C31.6895 46.6992 31.2949 46.8027 31.0098 47.0098C30.8262 47.1426 30.7344 47.3203 30.7344 47.543C30.7344 47.7461 30.8203 47.9199 30.9922 48.0645C31.2109 48.248 31.7422 48.4395 32.5859 48.6387C33.4297 48.8379 34.0527 49.0449 34.4551 49.2598C34.8613 49.4707 35.1777 49.7617 35.4043 50.1328C35.6348 50.5 35.75 50.9551 35.75 51.498C35.75 51.9902 35.6133 52.4512 35.3398 52.8809C35.0664 53.3105 34.6797 53.6309 34.1797 53.8418C33.6797 54.0488 33.0566 54.1523 32.3105 54.1523C31.2246 54.1523 30.3906 53.9023 29.8086 53.4023C29.2266 52.8984 28.8789 52.166 28.7656 51.2051ZM37.5301 45.4102L40.6004 54H42.4519L45.5281 45.4102H43.6883L41.5847 51.7676L39.4109 45.4102H37.5301Z" fill="#6AAA1E"/>
<path fill-rule="evenodd" clip-rule="evenodd" d="M13 33L13 7L38 7V9H27V15H37V17H27V23L49 23V19H51V33H13ZM49 25H27L27 31L49 31V25ZM25 31L25 25H15L15 31L25 31ZM15 23H25L25 17L15 17L15 23ZM15 15L25 15V9L15 9L15 15Z" fill="#BFBFBF"/>
<path fill-rule="evenodd" clip-rule="evenodd" d="M23 29H17V27H23V29Z" fill="#BFBFBF"/>
<path fill-rule="evenodd" clip-rule="evenodd" d="M23 21H17V19H23V21Z" fill="#BFBFBF"/>
<path fill-rule="evenodd" clip-rule="evenodd" d="M23 13H17V11H23V13Z" fill="#BFBFBF"/>
<path fill-rule="evenodd" clip-rule="evenodd" d="M47 29H29V27H47L47 29Z" fill="#BFBFBF"/>
<path fill-rule="evenodd" clip-rule="evenodd" d="M47 21L29 21V19L47 19V21Z" fill="#BFBFBF"/>
<path fill-rule="evenodd" clip-rule="evenodd" d="M38 13H29V11H38V13Z" fill="#BFBFBF"/>
<path opacity="0.3" d="M37 20V1H38V19H57L58 20H37Z" fill="black"/>
</svg>
