<svg width="80" height="80" viewBox="0 0 80 80" fill="none" xmlns="http://www.w3.org/2000/svg">
<path d="M17.5 4H50.4287C51.3569 4 52.247 4.36908 52.9033 5.02539L64.9746 17.0967C65.6309 17.753 66 18.6431 66 19.5713V72.5C66 74.433 64.433 76 62.5 76H17.5C15.567 76 14 74.433 14 72.5V7.5C14 5.567 15.567 4 17.5 4Z" fill="white" stroke="#BBBBBB" stroke-width="3"/>
<path d="M50.3225 3.87097V17.8548C50.3225 18.6833 50.9941 19.3548 51.8225 19.3548H65.8064" stroke="#BBBBBB" stroke-width="3"/>
<path d="M29.0742 27.664C29.9593 26.779 31.3942 26.779 32.2793 27.664L37.9267 33.3105H56.2861C57.3905 33.3107 58.2861 34.2061 58.2861 35.3105V36.043C58.2861 37.1474 57.3905 38.0427 56.2861 38.043H37.9267L33.043 42.9267V45.9316H36.7763L36.8779 45.9365C37.3823 45.9876 37.7763 46.4138 37.7763 46.9316V59.1308L37.7705 59.2324C37.7227 59.7031 37.3486 60.0773 36.8779 60.125L36.7763 60.1308H24.5771L24.4746 60.125C24.0041 60.077 23.6298 59.7029 23.582 59.2324L23.5771 59.1308V46.9316C23.5771 46.3793 24.0248 45.9316 24.5771 45.9316H28.3105V42.9258L22.664 37.2793C21.779 36.3942 21.779 34.9593 22.664 34.0742L29.0742 27.664ZM27.5771 56.1308H33.7763V49.9316H27.5771V56.1308ZM26.7178 35.6767L30.6621 39.6211H30.6914L34.6211 35.6914V35.6621L30.6767 31.7178L26.7178 35.6767Z" fill="#BDB9E4"/>
<path d="M40 44C40 41.7909 41.7909 40 44 40H66C68.2091 40 70 41.7909 70 44V66C70 68.2091 68.2091 70 66 70H44C41.7909 70 40 68.2091 40 66V44Z" fill="#5951BB"/>
<path d="M63 47L57.2925 64H52.6836L47 47H51.3702L54.1403 56.4286C54.2199 56.6667 54.3154 57.0317 54.4269 57.5238C54.5383 58 54.6498 58.5 54.7612 59.0238C54.8886 59.5317 54.9682 59.9524 55 60.2857C55.0478 59.9524 55.1194 59.5317 55.2149 59.0238C55.3264 58.5159 55.4378 58.0238 55.5493 57.5476C55.6607 57.0556 55.7562 56.6905 55.8358 56.4524L58.6537 47H63Z" fill="white"/>
</svg>
