<svg width="32" height="32" viewBox="0 0 32 32" fill="none" xmlns="http://www.w3.org/2000/svg">
<path d="M7 1.5H20.5859C20.7185 1.50004 20.8457 1.55275 20.9395 1.64648L26.3535 7.06055C26.4472 7.15428 26.5 7.28151 26.5 7.41406V29C26.5 29.8284 25.8284 30.5 25 30.5H7C6.17157 30.5 5.5 29.8284 5.5 29V3C5.5 2.17157 6.17157 1.5 7 1.5Z" fill="white" stroke="#BBBBBB"/>
<path d="M20.5 2V6C20.5 6.82843 21.1716 7.5 22 7.5H26" stroke="#BBBBBB"/>
<path d="M16 18C16 16.8954 16.8954 16 18 16H26C27.1046 16 28 16.8954 28 18V26C28 27.1046 27.1046 28 26 28H18C16.8954 28 16 27.1046 16 26V18Z" fill="#5951BB"/>
<path d="M25.3504 18.4596L22.9604 25.5996H21.0304L18.6504 18.4596H20.4804L21.6404 22.4196C21.6737 22.5196 21.7137 22.6729 21.7604 22.8796C21.8071 23.0796 21.8537 23.2896 21.9004 23.5096C21.9537 23.7229 21.9871 23.8996 22.0004 24.0396C22.0204 23.8996 22.0504 23.7229 22.0904 23.5096C22.1371 23.2963 22.1837 23.0896 22.2304 22.8896C22.2771 22.6829 22.3171 22.5296 22.3504 22.4296L23.5304 18.4596H25.3504Z" fill="white"/>
<path d="M11.3691 9.39537C11.7619 9.07531 12.341 9.09882 12.707 9.4647L15.2432 11.9999H22C22.5521 11.9999 22.9998 12.4478 23 12.9999C23 13.5521 22.5522 13.9998 22 13.9999H15.2432L13 16.243V17.9999H14L14.1025 18.0047C14.6065 18.0561 14.9998 18.4824 15 18.9999V22.9999L14.9951 23.1024C14.9472 23.5728 14.5729 23.947 14.1025 23.995L14 23.9999H10C9.48232 23.9999 9.05622 23.6065 9.00488 23.1024L9 22.9999V18.9999C9.00016 18.4477 9.44782 17.9999 10 17.9999H11V16.242L8.46485 13.7069C8.07447 13.3164 8.07437 12.6833 8.46485 12.2928L11.293 9.4647L11.3691 9.39537ZM11 21.9999H13V19.9999H11V21.9999ZM10.5859 12.9999L12 14.4139L13.4141 12.9999L12 11.5858L10.5859 12.9999Z" fill="#BDB9E4"/>
</svg>
