<svg width="64" height="64" viewBox="0 0 64 64" fill="none" xmlns="http://www.w3.org/2000/svg">
<path d="M7 1H38L57 20V63H7V1Z" fill="white"/>
<path fill-rule="evenodd" clip-rule="evenodd" d="M7 63H57V20L38 1H7V63ZM38 0H6V64H58V20L38 0Z" fill="#BFBFBF"/>
<path d="M29.6387 49.6992C29.6387 50.6719 29.8633 51.4102 30.3125 51.9141C30.7617 52.4141 31.332 52.6641 32.0234 52.6641C32.7148 52.6641 33.2812 52.416 33.7227 51.9199C34.168 51.4199 34.3906 50.6719 34.3906 49.6758C34.3906 48.6914 34.1738 47.957 33.7402 47.4727C33.3105 46.9883 32.7383 46.7461 32.0234 46.7461C31.3086 46.7461 30.7324 46.9922 30.2949 47.4844C29.8574 47.9727 29.6387 48.7109 29.6387 49.6992Z" fill="#1E7AAA"/>
<path d="M20.0598 46.8633V52.5527H21.3547C21.8391 52.5527 22.1887 52.5254 22.4035 52.4707C22.6848 52.4004 22.9172 52.2812 23.1008 52.1133C23.2883 51.9453 23.4406 51.6699 23.5578 51.2871C23.675 50.9004 23.7336 50.375 23.7336 49.7109C23.7336 49.0469 23.675 48.5371 23.5578 48.1816C23.4406 47.8262 23.2766 47.5488 23.0656 47.3496C22.8547 47.1504 22.5871 47.0156 22.2629 46.9453C22.0207 46.8906 21.5461 46.8633 20.8391 46.8633H20.0598Z" fill="#1E7AAA"/>
<path fill-rule="evenodd" clip-rule="evenodd" d="M15 39C13.8954 39 13 39.8954 13 41V57C13 58.1046 13.8954 59 15 59H49C50.1046 59 51 58.1046 51 57V41C51 39.8954 50.1046 39 49 39H15ZM27.8516 49.7578C27.8516 48.8828 27.9824 48.1484 28.2441 47.5547C28.4395 47.1172 28.7051 46.7246 29.041 46.377C29.3809 46.0293 29.752 45.7715 30.1543 45.6035C30.6895 45.377 31.3066 45.2637 32.0059 45.2637C33.2715 45.2637 34.2832 45.6562 35.041 46.4414C35.8027 47.2266 36.1836 48.3184 36.1836 49.7168C36.1836 51.1035 35.8066 52.1895 35.0527 52.9746C34.2988 53.7559 33.291 54.1465 32.0293 54.1465C30.752 54.1465 29.7363 53.7578 28.9824 52.9805C28.2285 52.1992 27.8516 51.125 27.8516 49.7578ZM18.3254 45.4102H21.4953C22.2101 45.4102 22.7551 45.4648 23.1301 45.5742C23.634 45.7227 24.0656 45.9863 24.425 46.3652C24.7844 46.7441 25.0578 47.209 25.2453 47.7598C25.4328 48.3066 25.5266 48.9824 25.5266 49.7871C25.5266 50.4941 25.4387 51.1035 25.2629 51.6152C25.048 52.2402 24.7414 52.7461 24.343 53.1328C24.0422 53.4258 23.6359 53.6543 23.1242 53.8184C22.7414 53.9395 22.2297 54 21.5891 54H18.3254V45.4102ZM45.9207 51.375L44.239 50.8418C44.0945 51.4707 43.8562 51.9316 43.5242 52.2246C43.1922 52.5176 42.7957 52.6641 42.3347 52.6641C41.7097 52.6641 41.2019 52.4336 40.8113 51.9727C40.4207 51.5117 40.2254 50.7383 40.2254 49.6523C40.2254 48.6289 40.4226 47.8887 40.8172 47.4316C41.2156 46.9746 41.7332 46.7461 42.3699 46.7461C42.8308 46.7461 43.2215 46.875 43.5418 47.1328C43.866 47.3906 44.0789 47.7422 44.1805 48.1875L45.8972 47.7773C45.7019 47.0898 45.409 46.5625 45.0183 46.1953C44.3621 45.5742 43.5086 45.2637 42.4578 45.2637C41.2547 45.2637 40.284 45.6602 39.5457 46.4531C38.8074 47.2422 38.4383 48.3516 38.4383 49.7812C38.4383 51.1328 38.8055 52.1992 39.5398 52.9805C40.2742 53.7578 41.2117 54.1465 42.3523 54.1465C43.2742 54.1465 44.034 53.9199 44.6316 53.4668C45.2332 53.0098 45.6629 52.3125 45.9207 51.375Z" fill="#1E7AAA"/>
<path d="M13 9H38V14H13V9Z" fill="#BFBFBF"/>
<path d="M13 16H38V19H51V21H13V16Z" fill="#BFBFBF"/>
<path d="M13 23H51V28H13V23Z" fill="#BFBFBF"/>
<path d="M13 30H40V35H13V30Z" fill="#BFBFBF"/>
<path opacity="0.3" d="M37 20V1H38V19H57L58 20H37Z" fill="black"/>
</svg>
