<svg width="96" height="96" viewBox="0 0 96 96" fill="none" xmlns="http://www.w3.org/2000/svg">
<g clip-path="url(#clip0)">
<path d="M10 1H57L86 30V95H10V1Z" fill="white"/>
<path d="M44.458 73.5488C44.458 75.0078 44.7949 76.1152 45.4688 76.8711C46.1426 77.6211 46.998 77.9961 48.0352 77.9961C49.0723 77.9961 49.9219 77.624 50.584 76.8799C51.252 76.1299 51.5859 75.0078 51.5859 73.5137C51.5859 72.0371 51.2607 70.9355 50.6104 70.209C49.9658 69.4824 49.1074 69.1191 48.0352 69.1191C46.9629 69.1191 46.0986 69.4883 45.4424 70.2266C44.7861 70.959 44.458 72.0664 44.458 73.5488Z" fill="#1E7AAA"/>
<path d="M29.6016 69.2949V77.8291H31.5439C31.9329 77.8291 32.2639 77.8173 32.5371 77.7938C32.7742 77.7734 32.9675 77.7441 33.1172 77.7061C33.1475 77.6985 33.1772 77.6906 33.2065 77.6823C33.2581 77.6678 33.3083 77.6522 33.3574 77.6354C33.6733 77.5275 33.9419 77.3724 34.1631 77.1699C34.4443 76.918 34.6729 76.5049 34.8486 75.9307C35.0244 75.3506 35.1123 74.5625 35.1123 73.5664C35.1123 72.5703 35.0244 71.8057 34.8486 71.2725C34.6729 70.7393 34.4268 70.3232 34.1104 70.0244C33.7939 69.7256 33.3926 69.5234 32.9062 69.418C32.543 69.3359 31.8311 69.2949 30.7705 69.2949H29.6016Z" fill="#1E7AAA"/>
<path fill-rule="evenodd" clip-rule="evenodd" d="M23 58C21.3433 58 20 59.3431 20 61V86C20 87.6569 21.3433 89 23 89H73C74.6567 89 76 87.6569 76 86V61C76 59.3431 74.6567 58 73 58H23ZM41.7773 73.6367C41.7773 72.3242 41.9736 71.2227 42.3662 70.332C42.6592 69.6758 43.0576 69.0869 43.5615 68.5654C44.0713 68.0439 44.6279 67.6572 45.2314 67.4053C46.0342 67.0654 46.96 66.8955 48.0088 66.8955C49.9072 66.8955 51.4248 67.4844 52.5615 68.6621C53.7041 69.8398 54.2754 71.4775 54.2754 73.5752C54.2754 75.6553 53.71 77.2842 52.5791 78.4619C51.4482 79.6338 49.9365 80.2197 48.0439 80.2197C46.1279 80.2197 44.6045 79.6367 43.4736 78.4707C42.3428 77.2988 41.7773 75.6875 41.7773 73.6367ZM27 67.1152H31.7549C32.8271 67.1152 33.6445 67.1973 34.207 67.3613C34.9629 67.584 35.6104 67.9795 36.1494 68.5479C36.6885 69.1162 37.0986 69.8135 37.3799 70.6396C37.6611 71.46 37.8018 72.4736 37.8018 73.6807C37.8018 74.7412 37.6699 75.6553 37.4062 76.4229C37.084 77.3604 36.624 78.1191 36.0264 78.6992C35.5752 79.1387 34.9658 79.4814 34.1982 79.7275C33.624 79.9092 32.8564 80 31.8955 80H27V67.1152ZM68.8811 76.0625L66.3586 75.2627C66.1418 76.2061 65.7844 76.8975 65.2864 77.3369C64.7883 77.7764 64.1936 77.9961 63.5022 77.9961C62.5647 77.9961 61.803 77.6504 61.217 76.959C60.6311 76.2676 60.3381 75.1074 60.3381 73.4785C60.3381 71.9434 60.634 70.833 61.2258 70.1475C61.8235 69.4619 62.5999 69.1191 63.5549 69.1191C64.2463 69.1191 64.8323 69.3125 65.3127 69.6992C65.7991 70.0859 66.1184 70.6133 66.2708 71.2812L68.8459 70.666C68.553 69.6348 68.1135 68.8438 67.5276 68.293C66.5432 67.3613 65.2629 66.8955 63.6868 66.8955C61.8821 66.8955 60.426 67.4902 59.3186 68.6797C58.2112 69.8633 57.6575 71.5273 57.6575 73.6719C57.6575 75.6992 58.2083 77.2988 59.3098 78.4707C60.4114 79.6367 61.8176 80.2197 63.5286 80.2197C64.9114 80.2197 66.051 79.8799 66.9475 79.2002C67.8499 78.5146 68.4944 77.4688 68.8811 76.0625Z" fill="#1E7AAA"/>
<path d="M57 11H20V18H57V11Z" fill="#BFBFBF"/>
<path d="M57 22H20V29H57V22Z" fill="#BFBFBF"/>
<path d="M76 33H20V40H76V33Z" fill="#BFBFBF"/>
<path d="M20 44H61V51H20V44Z" fill="#BFBFBF"/>
<path opacity="0.3" d="M56 30V1H57V29H86L87 30H56Z" fill="black"/>
</g>
<defs>
<clipPath id="clip0">
<rect width="96" height="96" fill="white"/>
</clipPath>
</defs>
</svg>
