<svg width="32" height="32" viewBox="0 0 32 32" fill="none" xmlns="http://www.w3.org/2000/svg">
<g clip-path="url(#clip0_3421_1817)">
<path d="M7 1.5H20.5859C20.6854 1.50003 20.7818 1.52961 20.8633 1.58398L20.9395 1.64648L26.3535 7.06055C26.4472 7.15428 26.5 7.28151 26.5 7.41406V29C26.5 29.8284 25.8284 30.5 25 30.5H7C6.17157 30.5 5.5 29.8284 5.5 29V3C5.5 2.17157 6.17157 1.5 7 1.5Z" fill="white" stroke="#BBBBBB"/>
<path d="M20.5 2V5.1C20.5 5.94008 20.5 6.36012 20.6635 6.68099C20.8073 6.96323 21.0368 7.1927 21.319 7.33651C21.6399 7.5 22.0599 7.5 22.9 7.5H26" stroke="#BBBBBB"/>
<path d="M13 20C13.5523 20 14 20.4477 14 21C14 21.5523 13.5523 22 13 22H10C9.44772 22 9 21.5523 9 21C9 20.4477 9.44772 20 10 20H13ZM13 16C13.5523 16 14 16.4477 14 17C14 17.5523 13.5523 18 13 18H10C9.44772 18 9 17.5523 9 17C9 16.4477 9.44772 16 10 16H13ZM22 12C22.5523 12 23 12.4477 23 13C23 13.5523 22.5523 14 22 14H10C9.44772 14 9 13.5523 9 13C9 12.4477 9.44772 12 10 12H22Z" fill="#A9CBDD"/>
<path d="M16 19.2C16 18.0799 16 17.5198 16.218 17.092C16.4097 16.7157 16.7157 16.4097 17.092 16.218C17.5198 16 18.0799 16 19.2 16H24.8C25.9201 16 26.4802 16 26.908 16.218C27.2843 16.4097 27.5903 16.7157 27.782 17.092C28 17.5198 28 18.0799 28 19.2V24.8C28 25.9201 28 26.4802 27.782 26.908C27.5903 27.2843 27.2843 27.5903 26.908 27.782C26.4802 28 25.9201 28 24.8 28H19.2C18.0799 28 17.5198 28 17.092 27.782C16.7157 27.5903 16.4097 27.2843 16.218 26.908C16 26.4802 16 25.9201 16 24.8V19.2Z" fill="#287CA9"/>
<path d="M26 19L24.5477 25H22.9412L22.2677 22.1008C22.2515 22.0392 22.2326 21.9496 22.211 21.8319C22.1893 21.7087 22.1623 21.5742 22.1298 21.4286C22.1028 21.2773 22.0784 21.1345 22.0568 21C22.0352 20.8599 22.0189 20.7479 22.0081 20.6639C21.9973 20.7479 21.9784 20.8599 21.9513 21C21.9297 21.1345 21.9053 21.2773 21.8783 21.4286C21.8513 21.5742 21.8242 21.7087 21.7972 21.8319C21.7755 21.9496 21.7566 22.0392 21.7404 22.1008L21.0588 25H19.4604L18 19H19.3469L20.0365 22.1513C20.0581 22.2353 20.0825 22.3473 20.1095 22.4874C20.1366 22.6218 20.1636 22.7675 20.1907 22.9244C20.2177 23.0756 20.2421 23.2241 20.2637 23.3697C20.2907 23.5098 20.3097 23.6303 20.3205 23.7311C20.3367 23.5966 20.3584 23.4426 20.3854 23.2689C20.4178 23.0952 20.4503 22.9188 20.4828 22.7395C20.5152 22.5602 20.5477 22.3922 20.5801 22.2353C20.6126 22.0784 20.6423 21.9524 20.6694 21.8571L21.359 19H22.6491L23.3387 21.8571C23.355 21.9524 23.3793 22.0784 23.4118 22.2353C23.4496 22.3922 23.4848 22.563 23.5172 22.7479C23.5551 22.9272 23.5876 23.1036 23.6146 23.2773C23.6417 23.451 23.6633 23.6022 23.6795 23.7311C23.6957 23.591 23.7201 23.423 23.7525 23.2269C23.7904 23.0252 23.8283 22.8263 23.8661 22.6303C23.904 22.4286 23.9364 22.2717 23.9635 22.1597L24.6531 19H26Z" fill="white"/>
</g>
<defs>
<clipPath id="clip0_3421_1817">
<rect width="32" height="32" fill="white"/>
</clipPath>
</defs>
</svg>
