<svg width="96" height="96" viewBox="0 0 96 96" fill="none" xmlns="http://www.w3.org/2000/svg">
<g clip-path="url(#clip0)">
<path d="M10 1H57L86 30V95H10V1Z" fill="white"/>
<path d="M39.4658 76.8711C38.792 76.1152 38.4551 75.0078 38.4551 73.5488C38.4551 72.0664 38.7832 70.959 39.4395 70.2266C40.0957 69.4883 40.96 69.1191 42.0322 69.1191C43.1045 69.1191 43.9629 69.4824 44.6074 70.209C45.2578 70.9355 45.583 72.0371 45.583 73.5137C45.583 75.0078 45.249 76.1299 44.5811 76.8799C43.9189 77.624 43.0693 77.9961 42.0322 77.9961C40.9951 77.9961 40.1396 77.6211 39.4658 76.8711Z" fill="#1E7AAA"/>
<path d="M25.8867 77.8291V69.2949H27.0557C28.1162 69.2949 28.8281 69.3359 29.1914 69.418C29.6777 69.5234 30.0791 69.7256 30.3955 70.0244C30.7119 70.3232 30.958 70.7393 31.1338 71.2725C31.3096 71.8057 31.3975 72.5703 31.3975 73.5664C31.3975 74.5625 31.3096 75.3506 31.1338 75.9307C30.958 76.5049 30.7295 76.918 30.4482 77.1699C30.1729 77.4219 29.8242 77.6006 29.4023 77.7061C29.0801 77.7881 28.5557 77.8291 27.8291 77.8291H25.8867Z" fill="#1E7AAA"/>
<path fill-rule="evenodd" clip-rule="evenodd" d="M23 58C21.3433 58 20 59.3431 20 61V86C20 87.6569 21.3433 89 23 89H73C74.6567 89 76 87.6569 76 86V61C76 59.3431 74.6567 58 73 58H23ZM36.3633 70.332C35.9707 71.2227 35.7744 72.3242 35.7744 73.6367C35.7744 75.6875 36.3398 77.2988 37.4707 78.4707C38.6016 79.6367 40.125 80.2197 42.041 80.2197C43.9336 80.2197 45.4453 79.6338 46.5762 78.4619C47.707 77.2842 48.2725 75.6553 48.2725 73.5752C48.2725 71.4775 47.7012 69.8398 46.5586 68.6621C45.4219 67.4844 43.9043 66.8955 42.0059 66.8955C40.957 66.8955 40.0312 67.0654 39.2285 67.4053C38.625 67.6572 38.0684 68.0439 37.5586 68.5654C37.0547 69.0869 36.6562 69.6758 36.3633 70.332ZM28.04 67.1152H23.2852V80H28.1807C29.1416 80 29.9092 79.9092 30.4834 79.7275C31.251 79.4814 31.8604 79.1387 32.3115 78.6992C32.9092 78.1191 33.3691 77.3604 33.6914 76.4229C33.9551 75.6553 34.0869 74.7412 34.0869 73.6807C34.0869 72.4736 33.9463 71.46 33.665 70.6396C33.3838 69.8135 32.9736 69.1162 32.4346 68.5479C31.8955 67.9795 31.248 67.584 30.4922 67.3613C29.9297 67.1973 29.1123 67.1152 28.04 67.1152ZM58.5557 75.2627L61.0781 76.0625C60.6914 77.4688 60.0469 78.5146 59.1445 79.2002C58.248 79.8799 57.1084 80.2197 55.7256 80.2197C54.0146 80.2197 52.6084 79.6367 51.5068 78.4707C50.4053 77.2988 49.8545 75.6992 49.8545 73.6719C49.8545 71.5273 50.4082 69.8633 51.5156 68.6797C52.623 67.4902 54.0791 66.8955 55.8838 66.8955C57.46 66.8955 58.7402 67.3613 59.7246 68.293C60.3105 68.8438 60.75 69.6348 61.043 70.666L58.4678 71.2812C58.3154 70.6133 57.9961 70.0859 57.5098 69.6992C57.0293 69.3125 56.4434 69.1191 55.752 69.1191C54.7969 69.1191 54.0205 69.4619 53.4229 70.1475C52.8311 70.833 52.5352 71.9434 52.5352 73.4785C52.5352 75.1074 52.8281 76.2676 53.4141 76.959C54 77.6504 54.7617 77.9961 55.6992 77.9961C56.3906 77.9961 56.9854 77.7764 57.4834 77.3369C57.9814 76.8975 58.3389 76.2061 58.5557 75.2627ZM66.4131 73.2764L62.0098 80H65.1299L67.9951 75.5439L70.8516 80H73.9893L69.5859 73.373L73.5938 67.1152H70.5791L68.0479 71.2549L65.4639 67.1152H62.4229L66.4131 73.2764Z" fill="#1E7AAA"/>
<path d="M57 11H20V18H57V11Z" fill="#BFBFBF"/>
<path d="M57 22H20V29H57V22Z" fill="#BFBFBF"/>
<path d="M76 33H20V40H76V33Z" fill="#BFBFBF"/>
<path d="M20 44H61V51H20V44Z" fill="#BFBFBF"/>
<path opacity="0.3" d="M56 30V1H57V29H86L87 30H56Z" fill="black"/>
</g>
<defs>
<clipPath id="clip0">
<rect width="96" height="96" fill="white"/>
</clipPath>
</defs>
</svg>
