<svg width="64" height="64" viewBox="0 0 64 64" fill="none" xmlns="http://www.w3.org/2000/svg">
<path d="M7 1H38L57 20V63H7V1Z" fill="white"/>
<path fill-rule="evenodd" clip-rule="evenodd" d="M7 63H57V20L38 1H7V63ZM38 0H6V64H58V20L38 0Z" fill="#BFBFBF"/>
<path d="M26.3105 51.9141C25.8613 51.4102 25.6367 50.6719 25.6367 49.6992C25.6367 48.7109 25.8555 47.9727 26.293 47.4844C26.7305 46.9922 27.3066 46.7461 28.0215 46.7461C28.7363 46.7461 29.3086 46.9883 29.7383 47.4727C30.1719 47.957 30.3887 48.6914 30.3887 49.6758C30.3887 50.6719 30.166 51.4199 29.7207 51.9199C29.2793 52.416 28.7129 52.6641 28.0215 52.6641C27.3301 52.6641 26.7598 52.4141 26.3105 51.9141Z" fill="#1E7AAA"/>
<path d="M17.2578 52.5527V46.8633H18.0371C18.7441 46.8633 19.2188 46.8906 19.4609 46.9453C19.7852 47.0156 20.0527 47.1504 20.2637 47.3496C20.4746 47.5488 20.6387 47.8262 20.7559 48.1816C20.873 48.5371 20.9316 49.0469 20.9316 49.7109C20.9316 50.375 20.873 50.9004 20.7559 51.2871C20.6387 51.6699 20.4863 51.9453 20.2988 52.1133C20.1152 52.2812 19.8828 52.4004 19.6016 52.4707C19.3867 52.5254 19.0371 52.5527 18.5527 52.5527H17.2578Z" fill="#1E7AAA"/>
<path fill-rule="evenodd" clip-rule="evenodd" d="M15 39C13.8954 39 13 39.8954 13 41V57C13 58.1046 13.8954 59 15 59H49C50.1046 59 51 58.1046 51 57V41C51 39.8954 50.1046 39 49 39H15ZM24.2422 47.5547C23.9805 48.1484 23.8496 48.8828 23.8496 49.7578C23.8496 51.125 24.2266 52.1992 24.9805 52.9805C25.7344 53.7578 26.75 54.1465 28.0273 54.1465C29.2891 54.1465 30.2969 53.7559 31.0508 52.9746C31.8047 52.1895 32.1816 51.1035 32.1816 49.7168C32.1816 48.3184 31.8008 47.2266 31.0391 46.4414C30.2812 45.6562 29.2695 45.2637 28.0039 45.2637C27.3047 45.2637 26.6875 45.377 26.1523 45.6035C25.75 45.7715 25.3789 46.0293 25.0391 46.377C24.7031 46.7246 24.4375 47.1172 24.2422 47.5547ZM18.6934 45.4102H15.5234V54H18.7871C19.4277 54 19.9395 53.9395 20.3223 53.8184C20.834 53.6543 21.2402 53.4258 21.541 53.1328C21.9395 52.7461 22.2461 52.2402 22.4609 51.6152C22.6367 51.1035 22.7246 50.4941 22.7246 49.7871C22.7246 48.9824 22.6309 48.3066 22.4434 47.7598C22.2559 47.209 21.9824 46.7441 21.623 46.3652C21.2637 45.9863 20.832 45.7227 20.3281 45.5742C19.9531 45.4648 19.4082 45.4102 18.6934 45.4102ZM39.0371 50.8418L40.7188 51.375C40.4609 52.3125 40.0312 53.0098 39.4297 53.4668C38.832 53.9199 38.0723 54.1465 37.1504 54.1465C36.0098 54.1465 35.0723 53.7578 34.3379 52.9805C33.6035 52.1992 33.2363 51.1328 33.2363 49.7812C33.2363 48.3516 33.6055 47.2422 34.3438 46.4531C35.082 45.6602 36.0527 45.2637 37.2559 45.2637C38.3066 45.2637 39.1602 45.5742 39.8164 46.1953C40.207 46.5625 40.5 47.0898 40.6953 47.7773L38.9785 48.1875C38.877 47.7422 38.6641 47.3906 38.3398 47.1328C38.0195 46.875 37.6289 46.7461 37.168 46.7461C36.5312 46.7461 36.0137 46.9746 35.6152 47.4316C35.2207 47.8887 35.0234 48.6289 35.0234 49.6523C35.0234 50.7383 35.2188 51.5117 35.6094 51.9727C36 52.4336 36.5078 52.6641 37.1328 52.6641C37.5938 52.6641 37.9902 52.5176 38.3223 52.2246C38.6543 51.9316 38.8926 51.4707 39.0371 50.8418ZM44.2754 49.5176L41.3398 54H43.4199L45.3301 51.0293L47.2344 54H49.3262L46.3906 49.582L49.0625 45.4102H47.0527L45.3652 48.1699L43.6426 45.4102H41.6152L44.2754 49.5176Z" fill="#1E7AAA"/>
<path d="M13 9H38V14H13V9Z" fill="#BFBFBF"/>
<path d="M13 16H38V19H51V21H13V16Z" fill="#BFBFBF"/>
<path d="M13 23H51V28H13V23Z" fill="#BFBFBF"/>
<path d="M13 30H40V35H13V30Z" fill="#BFBFBF"/>
<path opacity="0.3" d="M37 20V1H38V19H57L58 20H37Z" fill="black"/>
</svg>
