<svg width="80" height="90" viewBox="0 0 80 90" fill="none" xmlns="http://www.w3.org/2000/svg">
<path d="M11 0.5H53.7578C54.3379 0.500105 54.897 0.701925 55.3418 1.06641L55.5254 1.23242L71.7676 17.4746C72.2363 17.9433 72.4999 18.5793 72.5 19.2422V86C72.5 87.933 70.933 89.5 69 89.5H11C9.067 89.5 7.5 87.933 7.5 86V4C7.5 2.067 9.067 0.5 11 0.5Z" fill="white" stroke="#BBBBBB"/>
<path d="M54.5039 1V13.7039C54.5039 15.3841 54.5039 16.2241 54.8309 16.8659C55.1185 17.4304 55.5774 17.8893 56.1419 18.1769C56.7837 18.5039 57.6237 18.5039 59.3039 18.5039H72.0078" stroke="#BBBBBB"/>
<path d="M40 54.6C40 51.2397 40 49.5595 40.654 48.2761C41.2292 47.1471 42.1471 46.2292 43.2761 45.654C44.5595 45 46.2397 45 49.6 45H60.4C63.7603 45 65.4405 45 66.7239 45.654C67.8529 46.2292 68.7708 47.1471 69.346 48.2761C70 49.5595 70 51.2397 70 54.6V66.9C70 70.2603 70 71.9405 69.346 73.2239C68.7708 74.3529 67.8529 75.2708 66.7239 75.846C65.4405 76.5 63.7603 76.5 60.4 76.5H49.6C46.2397 76.5 44.5595 76.5 43.2761 75.846C42.1471 75.2708 41.2292 74.3529 40.654 73.2239C40 71.9405 40 70.2603 40 66.9V54.6Z" fill="#287CA9"/>
<path d="M65 52.875L61.3692 68.625H57.3529L55.6694 61.0147C55.6288 60.8529 55.5815 60.6176 55.5274 60.3088C55.4733 59.9853 55.4057 59.6324 55.3245 59.25C55.2569 58.8529 55.1961 58.4779 55.142 58.125C55.0879 57.7574 55.0473 57.4632 55.0203 57.2426C54.9932 57.4632 54.9459 57.7574 54.8783 58.125C54.8242 58.4779 54.7634 58.8529 54.6957 59.25C54.6281 59.6324 54.5605 59.9853 54.4929 60.3088C54.4388 60.6176 54.3915 60.8529 54.3509 61.0147L52.6471 68.625H48.6511L45 52.875H48.3671L50.0913 61.1471C50.1454 61.3676 50.2062 61.6618 50.2738 62.0294C50.3414 62.3824 50.4091 62.7647 50.4767 63.1765C50.5443 63.5735 50.6051 63.9632 50.6592 64.3456C50.7268 64.7132 50.7742 65.0294 50.8012 65.2941C50.8418 64.9412 50.8959 64.5368 50.9635 64.0809C51.0446 63.625 51.1258 63.1618 51.2069 62.6912C51.288 62.2206 51.3692 61.7794 51.4503 61.3676C51.5314 60.9559 51.6058 60.625 51.6734 60.375L53.3976 52.875H56.6227L58.3469 60.375C58.3874 60.625 58.4483 60.9559 58.5294 61.3676C58.6241 61.7794 58.712 62.2279 58.7931 62.7132C58.8878 63.1838 58.9689 63.6471 59.0365 64.1029C59.1041 64.5588 59.1582 64.9559 59.1988 65.2941C59.2394 64.9265 59.3002 64.4853 59.3813 63.9706C59.476 63.4412 59.5707 62.9191 59.6653 62.4044C59.76 61.875 59.8411 61.4632 59.9087 61.1691L61.6329 52.875H65Z" fill="white"/>
<path d="M32.375 55.5C33.8247 55.5 35 56.6753 35 58.125C35 59.5747 33.8247 60.75 32.375 60.75H25.125C23.6753 60.75 22.5 59.5747 22.5 58.125C22.5 56.6753 23.6753 55.5 25.125 55.5H32.375ZM32.375 45C33.8247 45 35 46.1753 35 47.625C35 49.0747 33.8247 50.25 32.375 50.25H25.125C23.6753 50.25 22.5 49.0747 22.5 47.625C22.5 46.1753 23.6753 45 25.125 45H32.375ZM54.875 34.5C56.3247 34.5 57.5 35.6753 57.5 37.125C57.5 38.5747 56.3247 39.75 54.875 39.75H25.125C23.6753 39.75 22.5 38.5747 22.5 37.125C22.5 35.6753 23.6753 34.5 25.125 34.5H54.875Z" fill="#A9CBDD"/>
</svg>
