<svg width="34" height="34" viewBox="0 0 34 34" fill="none" xmlns="http://www.w3.org/2000/svg">
<g clip-path="url(#clip0_3431_2183)">
<path d="M32 0H2C0.89543 0 0 0.89543 0 2V32C0 33.1046 0.89543 34 2 34H32C33.1046 34 34 33.1046 34 32V2C34 0.89543 33.1046 0 32 0Z" fill="#4A7CE8"/>
<path fill-rule="evenodd" clip-rule="evenodd" d="M16.1259 22.8409L10.3681 20.1634C9.87762 19.9296 9.87762 19.5684 10.3681 19.3559L12.3727 18.4209L16.1046 20.1634C16.5951 20.3971 17.3841 20.3971 17.8533 20.1634L21.5852 18.4209L23.5897 19.3559C24.0802 19.5896 24.0802 19.9509 23.5897 20.1634L17.8319 22.8409C17.3841 23.0534 16.5951 23.0534 16.1259 22.8409Z" fill="white" fill-opacity="0.5"/>
<path fill-rule="evenodd" clip-rule="evenodd" d="M16.1259 19.5467L10.3681 16.8692C9.87762 16.6354 9.87762 16.2742 10.3681 16.0617L12.33 15.1479L16.1259 16.9117C16.6164 17.1454 17.4054 17.1454 17.8746 16.9117L21.6705 15.1479L23.6324 16.0617C24.1229 16.2954 24.1229 16.6567 23.6324 16.8692L17.8746 19.5467C17.3841 19.7804 16.5951 19.7804 16.1259 19.5467Z" fill="white" fill-opacity="0.75"/>
<path fill-rule="evenodd" clip-rule="evenodd" d="M16.1257 16.3378L10.3679 13.6603C9.87738 13.4265 9.87738 13.0653 10.3679 12.8528L16.1257 10.1753C16.6161 9.94156 17.4052 9.94156 17.8743 10.1753L23.6321 12.8528C24.1226 13.0865 24.1226 13.4478 23.6321 13.6603L17.8743 16.3378C17.3839 16.5503 16.5948 16.5503 16.1257 16.3378Z" fill="white"/>
</g>
<defs>
<clipPath id="clip0_3431_2183">
<rect width="34" height="34" fill="white"/>
</clipPath>
</defs>
</svg>
