<svg width="34" height="34" viewBox="0 0 34 34" fill="none" xmlns="http://www.w3.org/2000/svg">
<rect width="34" height="34" rx="2" fill="#166DE0"/>
<path fill-rule="evenodd" clip-rule="evenodd" d="M15.4389 28.218L5.15732 23.4808C4.28148 23.0673 4.28148 22.4282 5.15732 22.0522L8.73685 20.3979L15.4009 23.4808C16.2767 23.8944 17.6857 23.8944 18.5234 23.4808L25.1874 20.3979L28.767 22.0522C29.6428 22.4657 29.6428 23.1049 28.767 23.4808L18.4853 28.218C17.6857 28.594 16.2767 28.594 15.4389 28.218Z" fill="white" fill-opacity="0.5"/>
<path fill-rule="evenodd" clip-rule="evenodd" d="M15.4389 22.3908L5.15732 17.6537C4.28148 17.2401 4.28148 16.601 5.15732 16.225L8.66069 14.6084L15.4389 17.7289C16.3148 18.1425 17.7237 18.1425 18.5615 17.7289L25.3398 14.6084L28.8431 16.225C29.719 16.6386 29.719 17.2777 28.8431 17.6537L18.5615 22.3908C17.6857 22.8044 16.2767 22.8044 15.4389 22.3908Z" fill="white" fill-opacity="0.75"/>
<path fill-rule="evenodd" clip-rule="evenodd" d="M15.4385 16.7131L5.15688 11.976C4.28104 11.5624 4.28104 10.9233 5.15688 10.5473L15.4385 5.81017C16.3143 5.39661 17.7233 5.39661 18.5611 5.81017L28.8427 10.5473C29.7185 10.9609 29.7185 11.6 28.8427 11.976L18.5611 16.7131C17.6852 17.0891 16.2763 17.0891 15.4385 16.7131Z" fill="white"/>
</svg>
