<svg width="34" height="34" viewBox="0 0 34 34" fill="none" xmlns="http://www.w3.org/2000/svg">
<g clip-path="url(#clip0_3431_2144)">
<path d="M32 0H2C0.89543 0 0 0.89543 0 2V32C0 33.1046 0.89543 34 2 34H32C33.1046 34 34 33.1046 34 32V2C34 0.89543 33.1046 0 32 0Z" fill="#1C58D9"/>
<path fill-rule="evenodd" clip-rule="evenodd" d="M16.1258 22.8409L10.368 20.1634C9.8775 19.9296 9.8775 19.5684 10.368 19.3559L12.3726 18.4209L16.1045 20.1634C16.5949 20.3971 17.384 20.3971 17.8531 20.1634L21.585 18.4209L23.5896 19.3559C24.0801 19.5896 24.0801 19.9509 23.5896 20.1634L17.8318 22.8409C17.384 23.0534 16.5949 23.0534 16.1258 22.8409Z" fill="white" fill-opacity="0.5"/>
<path fill-rule="evenodd" clip-rule="evenodd" d="M16.1258 19.5467L10.368 16.8692C9.8775 16.6354 9.8775 16.2742 10.368 16.0617L12.3299 15.1479L16.1258 16.9117C16.6163 17.1454 17.4053 17.1454 17.8745 16.9117L21.6703 15.1479L23.6323 16.0617C24.1227 16.2954 24.1227 16.6567 23.6323 16.8692L17.8745 19.5467C17.384 19.7804 16.5949 19.7804 16.1258 19.5467Z" fill="white" fill-opacity="0.75"/>
<path fill-rule="evenodd" clip-rule="evenodd" d="M16.1257 16.3378L10.3679 13.6603C9.87738 13.4265 9.87738 13.0653 10.3679 12.8528L16.1257 10.1753C16.6161 9.94156 17.4052 9.94156 17.8743 10.1753L23.6321 12.8528C24.1226 13.0865 24.1226 13.4478 23.6321 13.6603L17.8743 16.3378C17.3839 16.5503 16.5948 16.5503 16.1257 16.3378Z" fill="white"/>
</g>
<defs>
<clipPath id="clip0_3431_2144">
<rect width="34" height="34" fill="white"/>
</clipPath>
</defs>
</svg>