<svg width="41" height="41" viewBox="0 0 41 41" fill="none" xmlns="http://www.w3.org/2000/svg">
<path d="M40.5 20.5C40.5 17.8079 39.9827 15.1422 38.9776 12.655C37.9725 10.1678 36.4993 7.90791 34.6421 6.00431C32.785 4.10071 30.5802 2.59069 28.1537 1.56047C25.7272 0.530248 23.1264 0 20.5 0C17.8736 0 15.2728 0.530248 12.8463 1.56047C10.4198 2.59069 8.21504 4.10071 6.35786 6.00431C4.50069 7.90791 3.0275 10.1678 2.02241 12.655C1.01732 15.1422 0.5 17.8079 0.5 20.5C0.5 25.9369 2.60714 31.1512 6.35786 34.9957C10.1086 38.8402 15.1957 41 20.5 41C25.8043 41 30.8914 38.8402 34.6421 34.9957C38.3929 31.1512 40.5 25.9369 40.5 20.5ZM3.83333 20.5C3.83333 15.9692 5.58928 11.624 8.71489 8.42026C11.8405 5.21651 16.0797 3.41667 20.5 3.41667C24.9203 3.41667 29.1595 5.21651 32.2851 8.42026C35.4107 11.624 37.1667 15.9692 37.1667 20.5C37.1667 25.0308 35.4107 29.376 32.2851 32.5797C29.1595 35.7835 24.9203 37.5833 20.5 37.5833C16.0797 37.5833 11.8405 35.7835 8.71489 32.5797C5.58928 29.376 3.83333 25.0308 3.83333 20.5ZM17.1667 16.2292C17.1667 16.5657 17.102 16.8989 16.9764 17.2098C16.8507 17.5207 16.6666 17.8032 16.4344 18.0411C16.2023 18.2791 15.9267 18.4678 15.6234 18.5966C15.3201 18.7254 14.995 18.7917 14.6667 18.7917C14.3384 18.7917 14.0133 18.7254 13.71 18.5966C13.4066 18.4678 13.131 18.2791 12.8989 18.0411C12.6668 17.8032 12.4826 17.5207 12.357 17.2098C12.2313 16.8989 12.1667 16.5657 12.1667 16.2292C12.1667 15.5496 12.4301 14.8978 12.8989 14.4172C13.3677 13.9366 14.0036 13.6667 14.6667 13.6667C15.3297 13.6667 15.9656 13.9366 16.4344 14.4172C16.9033 14.8978 17.1667 15.5496 17.1667 16.2292ZM28.8333 16.2292C28.8333 16.9088 28.5699 17.5606 28.1011 18.0411C27.6323 18.5217 26.9964 18.7917 26.3333 18.7917C25.6703 18.7917 25.0344 18.5217 24.5656 18.0411C24.0967 17.5606 23.8333 16.9088 23.8333 16.2292C23.8333 15.5496 24.0967 14.8978 24.5656 14.4172C25.0344 13.9366 25.6703 13.6667 26.3333 13.6667C26.9964 13.6667 27.6323 13.9366 28.1011 14.4172C28.5699 14.8978 28.8333 15.5496 28.8333 16.2292ZM14.2733 30.1418C17.3567 26.3972 23.64 26.3972 26.7267 30.1418C26.8644 30.3235 27.0365 30.4747 27.2327 30.5865C27.4288 30.6982 27.645 30.7683 27.8681 30.7923C28.0913 30.8164 28.317 30.794 28.5315 30.7265C28.7461 30.6591 28.9451 30.5478 29.1167 30.3996C29.2883 30.2513 29.4289 30.0691 29.5301 29.8637C29.6313 29.6584 29.691 29.4343 29.7057 29.2047C29.7203 28.9752 29.6895 28.745 29.6152 28.5279C29.541 28.3108 29.4247 28.1114 29.2733 27.9415C24.8567 22.5773 16.14 22.5773 11.7267 27.9415C11.5753 28.1114 11.459 28.3108 11.3848 28.5279C11.3105 28.745 11.2797 28.9752 11.2943 29.2047C11.309 29.4343 11.3687 29.6584 11.4699 29.8637C11.5711 30.0691 11.7117 30.2513 11.8833 30.3996C12.0549 30.5478 12.2539 30.6591 12.4685 30.7265C12.683 30.794 12.9087 30.8164 13.1319 30.7923C13.355 30.7683 13.5712 30.6982 13.7673 30.5865C13.9635 30.4747 14.1356 30.3235 14.2733 30.1418Z" fill="#F21E1E" fill-opacity="0.93"/>
</svg>
