<svg width="32" height="32" viewBox="0 0 32 32" fill="none" xmlns="http://www.w3.org/2000/svg">
<g clip-path="url(#clip0_3421_1894)">
<path d="M7 1.5H20.5859C20.6854 1.50003 20.7818 1.52961 20.8633 1.58398L20.9395 1.64648L26.3535 7.06055C26.4472 7.15428 26.5 7.28151 26.5 7.41406V29C26.5 29.8284 25.8284 30.5 25 30.5H7C6.17157 30.5 5.5 29.8284 5.5 29V3C5.5 2.17157 6.17157 1.5 7 1.5Z" fill="white" stroke="#BBBBBB"/>
<path d="M20.5 2V5.1C20.5 5.94008 20.5 6.36012 20.6635 6.68099C20.8073 6.96323 21.0368 7.1927 21.319 7.33651C21.6399 7.5 22.0599 7.5 22.9 7.5H26" stroke="#BBBBBB"/>
<path d="M9 13C9 12.4477 9.44772 12 10 12H18C18.5523 12 19 12.4477 19 13C19 13.5523 18.5523 14 18 14H10C9.44772 14 9 13.5523 9 13Z" fill="#A9DDDA"/>
<mask id="path-4-inside-1_3421_1894" fill="white">
<rect x="9" y="16" width="14" height="6" rx="1"/>
</mask>
<rect x="9" y="16" width="14" height="6" rx="1" stroke="#28ABA3" stroke-width="4" mask="url(#path-4-inside-1_3421_1894)"/>
</g>
<defs>
<clipPath id="clip0_3421_1894">
<rect width="32" height="32" fill="white"/>
</clipPath>
</defs>
</svg>
