<svg width="96" height="96" viewBox="0 0 96 96" fill="none" xmlns="http://www.w3.org/2000/svg">
<g clip-path="url(#clip0)">
<path d="M10 1H57L86 30V95H10V1Z" fill="white"/>
<path fill-rule="evenodd" clip-rule="evenodd" d="M23 58C21.3433 58 20 59.3431 20 61V86C20 87.6569 21.3433 89 23 89H73C74.6567 89 76 87.6569 76 86V61C76 59.3431 74.6567 58 73 58H23Z" fill="#1E7AAA"/>
<path d="M57 11H20V18H57V11Z" fill="#BFBFBF"/>
<path d="M57 22H20V29H57V22Z" fill="#BFBFBF"/>
<path d="M76 33H20V40H76V33Z" fill="#BFBFBF"/>
<path d="M20 44H61V51H20V44Z" fill="#BFBFBF"/>
<path opacity="0.3" d="M56 30V1H57V29H86L87 30H56Z" fill="black"/>
</g>
<defs>
<clipPath id="clip0">
<rect width="96" height="96" fill="white"/>
</clipPath>
</defs>
</svg>
