<svg width="32" height="32" viewBox="0 0 32 32" fill="none" xmlns="http://www.w3.org/2000/svg">
<g clip-path="url(#clip0_3421_1887)">
<path d="M7 1.5H20.5859C20.6854 1.50003 20.7818 1.52961 20.8633 1.58398L20.9395 1.64648L26.3535 7.06055C26.4472 7.15428 26.5 7.28151 26.5 7.41406V29C26.5 29.8284 25.8284 30.5 25 30.5H7C6.17157 30.5 5.5 29.8284 5.5 29V3C5.5 2.17157 6.17157 1.5 7 1.5Z" fill="white" stroke="#BBBBBB"/>
<path d="M20.5 2V5.1C20.5 5.94008 20.5 6.36012 20.6635 6.68099C20.8073 6.96323 21.0368 7.1927 21.319 7.33651C21.6399 7.5 22.0599 7.5 22.9 7.5H26" stroke="#BBBBBB"/>
<path d="M18.2929 13.2929C18.659 12.9268 19.238 12.9042 19.6308 13.2245L19.707 13.2929L22.707 16.2929C22.8945 16.4804 22.9999 16.7347 22.9999 16.9999C22.9999 17.2651 22.8945 17.5194 22.707 17.707L19.707 20.707C19.3164 21.0975 18.6834 21.0975 18.2929 20.707C17.9024 20.3164 17.9024 19.6834 18.2929 19.2929L20.5859 16.9999L18.2929 14.707L18.2245 14.6308C17.9042 14.238 17.9268 13.659 18.2929 13.2929ZM12.2929 13.2929C12.6834 12.9024 13.3164 12.9024 13.707 13.2929C14.0975 13.6834 14.0975 14.3164 13.707 14.707L11.414 16.9999L13.707 19.2929L13.7753 19.3691C14.0957 19.7618 14.0731 20.3408 13.707 20.707C13.3408 21.0731 12.7618 21.0957 12.3691 20.7753L12.2929 20.707L9.29289 17.707C8.90237 17.3164 8.90237 16.6834 9.29289 16.2929L12.2929 13.2929Z" fill="#A1A1A1"/>
</g>
<defs>
<clipPath id="clip0_3421_1887">
<rect width="32" height="32" fill="white"/>
</clipPath>
</defs>
</svg>
