<svg width="80" height="90" viewBox="0 0 80 90" fill="none" xmlns="http://www.w3.org/2000/svg">
<path d="M11 0.5H53.7578C54.3379 0.500105 54.897 0.701925 55.3418 1.06641L55.5254 1.23242L71.7676 17.4746C72.2363 17.9433 72.4999 18.5793 72.5 19.2422V86C72.5 87.933 70.933 89.5 69 89.5H11C9.067 89.5 7.5 87.933 7.5 86V4C7.5 2.067 9.067 0.5 11 0.5Z" fill="white" stroke="#BBBBBB"/>
<path d="M54.5039 1V13.7039C54.5039 15.3841 54.5039 16.2241 54.8309 16.8659C55.1185 17.4304 55.5774 17.8893 56.1419 18.1769C56.7837 18.5039 57.6237 18.5039 59.3039 18.5039H72.0078" stroke="#BBBBBB"/>
<path d="M30.3267 37.6807C31.4693 36.481 33.3691 36.4348 34.5689 37.5772C35.7687 38.7198 35.8151 40.6196 34.6724 41.8194L29.1431 47.625L34.6724 53.4307L34.7759 53.5459C35.8106 54.7492 35.7311 56.5661 34.5689 57.6729C33.4065 58.7797 31.5873 58.7704 30.4361 57.6778L30.3267 57.5694L22.8267 49.6944C21.7236 48.5358 21.7236 46.7143 22.8267 45.5557L30.3267 37.6807ZM45.4302 37.5772C46.5926 36.4702 48.4117 36.4798 49.5631 37.5723L49.6724 37.6807L57.1724 45.5557C58.2758 46.7143 58.2758 48.5358 57.1724 49.6944L49.6724 57.5694L49.5631 57.6778C48.4117 58.7703 46.5926 58.7798 45.4302 57.6729C44.2684 56.5661 44.1889 54.7491 45.2232 53.5459L45.3267 53.4307L50.856 47.625L45.3267 41.8194L45.2232 41.7041C44.1888 40.501 44.2684 38.684 45.4302 37.5772Z" fill="#A1A1A1"/>
</svg>
