<svg width="16" height="16" viewBox="0 0 16 16" fill="none" xmlns="http://www.w3.org/2000/svg">
<path fill-rule="evenodd" clip-rule="evenodd" d="M7.12579 13.8406L1.36798 11.1631C0.877502 10.9294 0.877502 10.5681 1.36798 10.3556L3.37255 9.42065L7.10447 11.1631C7.59495 11.3969 8.38398 11.3969 8.85313 11.1631L12.585 9.42065L14.5896 10.3556C15.0801 10.5894 15.0801 10.9506 14.5896 11.1631L8.83181 13.8406C8.38398 14.0531 7.59495 14.0531 7.12579 13.8406Z" fill="#DDDFE4" fill-opacity="0.5"/>
<path fill-rule="evenodd" clip-rule="evenodd" d="M7.12579 10.5467L1.36798 7.86919C0.877502 7.63544 0.877502 7.27419 1.36798 7.06169L3.3299 6.14795L7.12579 7.91169C7.61627 8.14544 8.4053 8.14544 8.87446 7.91169L12.6703 6.14795L14.6323 7.06169C15.1227 7.29544 15.1227 7.65669 14.6323 7.86919L8.87446 10.5467C8.38398 10.7804 7.59494 10.7804 7.12579 10.5467Z" fill="#DDDFE4" fill-opacity="0.75"/>
<path fill-rule="evenodd" clip-rule="evenodd" d="M7.12567 7.33777L1.36786 4.66029C0.87738 4.42654 0.87738 4.06529 1.36786 3.85279L7.12567 1.17531C7.61615 0.941563 8.40518 0.941563 8.87433 1.17531L14.6321 3.85279C15.1226 4.08654 15.1226 4.44779 14.6321 4.66029L8.87433 7.33777C8.38385 7.55027 7.59482 7.55027 7.12567 7.33777Z" fill="#DDDFE4"/>
</svg>
