<svg width="80" height="90" viewBox="0 0 80 90" fill="none" xmlns="http://www.w3.org/2000/svg">
<path d="M11 0.5H53.7578C54.3379 0.500105 54.897 0.701925 55.3418 1.06641L55.5254 1.23242L71.7676 17.4746C72.2363 17.9433 72.4999 18.5793 72.5 19.2422V86C72.5 87.933 70.933 89.5 69 89.5H11C9.067 89.5 7.5 87.933 7.5 86V4C7.5 2.067 9.067 0.5 11 0.5Z" fill="white" stroke="#BBBBBB"/>
<path d="M54.5039 1V13.7039C54.5039 15.3841 54.5039 16.2241 54.8309 16.8659C55.1185 17.4304 55.5774 17.8893 56.1419 18.1769C56.7837 18.5039 57.6237 18.5039 59.3039 18.5039H72.0078" stroke="#BBBBBB"/>
</svg>
