<svg width="80" height="90" viewBox="0 0 80 90" fill="none" xmlns="http://www.w3.org/2000/svg">
<path d="M11 0.5H53.7578C54.3379 0.500105 54.897 0.701925 55.3418 1.06641L55.5254 1.23242L71.7676 17.4746C72.2363 17.9433 72.4999 18.5793 72.5 19.2422V86C72.5 87.933 70.933 89.5 69 89.5H11C9.067 89.5 7.5 87.933 7.5 86V4C7.5 2.067 9.067 0.5 11 0.5Z" fill="white" stroke="#BBBBBB"/>
<path d="M54.5039 1V13.7039C54.5039 15.3841 54.5039 16.2241 54.8309 16.8659C55.1185 17.4304 55.5774 17.8893 56.1419 18.1769C56.7837 18.5039 57.6237 18.5039 59.3039 18.5039H72.0078" stroke="#BBBBBB"/>
<path d="M32.375 55.5C33.8247 55.5 35 56.6753 35 58.125C35 59.5747 33.8247 60.75 32.375 60.75H25.125C23.6753 60.75 22.5 59.5747 22.5 58.125C22.5 56.6753 23.6753 55.5 25.125 55.5H32.375ZM32.375 45C33.8247 45 35 46.1753 35 47.625C35 49.0747 33.8247 50.25 32.375 50.25H25.125C23.6753 50.25 22.5 49.0747 22.5 47.625C22.5 46.1753 23.6753 45 25.125 45H32.375ZM54.875 34.5C56.3247 34.5 57.5 35.6753 57.5 37.125C57.5 38.5747 56.3247 39.75 54.875 39.75H25.125C23.6753 39.75 22.5 38.5747 22.5 37.125C22.5 35.6753 23.6753 34.5 25.125 34.5H54.875Z" fill="#F5A99F"/>
<path d="M40 54.6C40 51.2397 40 49.5595 40.654 48.2761C41.2292 47.1471 42.1471 46.2292 43.2761 45.654C44.5595 45 46.2397 45 49.6 45H60.4C63.7603 45 65.4405 45 66.7239 45.654C67.8529 46.2292 68.7708 47.1471 69.346 48.2761C70 49.5595 70 51.2397 70 54.6V66.9C70 70.2603 70 71.9405 69.346 73.2239C68.7708 74.3529 67.8529 75.2708 66.7239 75.846C65.4405 76.5 63.7603 76.5 60.4 76.5H49.6C46.2397 76.5 44.5595 76.5 43.2761 75.846C42.1471 75.2708 41.2292 74.3529 40.654 73.2239C40 71.9405 40 70.2603 40 66.9V54.6Z" fill="#E52910"/>
<path fill-rule="evenodd" clip-rule="evenodd" d="M52.5386 50.25C52.5386 53.3073 51.7069 56.9133 50.3012 60.2401C48.89 63.5805 46.9852 66.4381 45 68.1229L47.157 71.25C52.5075 67.4657 58.432 64.8717 64.1646 65.7402L65 61.9811C60.1156 60.2556 56.1964 55.0774 56.1964 50.25H52.5386ZM54.9241 58.2549C54.5585 59.4705 54.1253 60.6705 53.6354 61.8279C53.371 62.4548 53.0894 63.0726 52.7872 63.6813C54.4891 62.9679 56.2476 62.4076 58.0427 62.0664C56.8464 60.9502 55.7975 59.6682 54.9241 58.2549Z" fill="white"/>
</svg>
