<svg width="34" height="34" viewBox="0 0 34 34" fill="none" xmlns="http://www.w3.org/2000/svg">
<g clip-path="url(#clip0_3431_2182)">
<path d="M32 0H2C0.89543 0 0 0.89543 0 2V32C0 33.1046 0.89543 34 2 34H32C33.1046 34 34 33.1046 34 32V2C34 0.89543 33.1046 0 32 0Z" fill="#4A7CE8"/>
<path d="M21 19.7188C21.5417 19.7188 22 19.9167 22.375 20.3125C22.75 20.6875 22.9375 21.1354 22.9375 21.6562C22.9375 22.1979 22.7396 22.6667 22.3438 23.0625C21.9688 23.4375 21.5208 23.625 21 23.625C20.4792 23.625 20.0208 23.4375 19.625 23.0625C19.25 22.6667 19.0625 22.1979 19.0625 21.6562C19.0625 21.4479 19.0729 21.302 19.0938 21.2188L14.375 18.4688C13.9792 18.8229 13.5208 19 13 19C12.4583 19 11.9896 18.8021 11.5938 18.4062C11.1979 18.0104 11 17.5417 11 17C11 16.4583 11.1979 15.9896 11.5938 15.5938C11.9896 15.1979 12.4583 15 13 15C13.5208 15 13.9792 15.1771 14.375 15.5312L19.0625 12.8125C19.0208 12.6042 19 12.4478 19 12.3438C19 11.802 19.1979 11.3333 19.5938 10.9375C19.9896 10.5417 20.4583 10.3438 21 10.3438C21.5417 10.3438 22.0104 10.5417 22.4062 10.9375C22.8021 11.3333 23 11.802 23 12.3438C23 12.8853 22.8021 13.3542 22.4062 13.75C22.0104 14.1458 21.5417 14.3438 21 14.3438C20.5 14.3438 20.0417 14.1562 19.625 13.7812L14.9375 16.5312C14.9792 16.7396 15 16.8958 15 17C15 17.1042 14.9792 17.2604 14.9375 17.4688L19.6875 20.2188C20.0625 19.8854 20.5 19.7188 21 19.7188Z" fill="white"/>
</g>
<defs>
<clipPath id="clip0_3431_2182">
<rect width="34" height="34" fill="white"/>
</clipPath>
</defs>
</svg>
