<svg width="96" height="96" viewBox="0 0 96 96" fill="none" xmlns="http://www.w3.org/2000/svg">
<g clip-path="url(#clip0)">
<path d="M10 1H57L86 30V95H10V1Z" fill="white"/>
<path d="M32.6033 69.2949V72.9512H34.0272C35.0526 72.9512 35.7381 72.8838 36.0838 72.749C36.4295 72.6143 36.699 72.4033 36.8924 72.1162C37.0916 71.8291 37.1912 71.4951 37.1912 71.1143C37.1912 70.6455 37.0535 70.2588 36.7781 69.9541C36.5027 69.6494 36.1541 69.459 35.7322 69.3828C35.4217 69.3242 34.7977 69.2949 33.8602 69.2949H32.6033Z" fill="#F36700"/>
<path d="M46.4092 69.2949V72.9512H47.833C48.8584 72.9512 49.5439 72.8838 49.8896 72.749C50.2354 72.6143 50.5049 72.4033 50.6982 72.1162C50.8975 71.8291 50.9971 71.4951 50.9971 71.1143C50.9971 70.6455 50.8594 70.2588 50.584 69.9541C50.4093 69.7607 50.2051 69.6133 49.9714 69.5127C49.8368 69.4541 49.6923 69.4111 49.5381 69.3828C49.2275 69.3242 48.6035 69.2949 47.666 69.2949H46.4092Z" fill="#F36700"/>
<path fill-rule="evenodd" clip-rule="evenodd" d="M23 58C21.3431 58 20 59.3428 20 61V86C20 87.6572 21.3431 89 23 89H73C74.6569 89 76 87.6572 76 86V61C76 59.3428 74.6569 58 73 58H23ZM30.0018 80V67.1152H34.1766C35.7586 67.1152 36.7899 67.1797 37.2703 67.3086C38.0086 67.502 38.6268 67.9238 39.1248 68.5742C39.6229 69.2188 39.8719 70.0537 39.8719 71.0791C39.8719 71.8701 39.7283 72.5352 39.4412 73.0742C39.1541 73.6133 38.7879 74.0381 38.3426 74.3486C37.9031 74.6533 37.4549 74.8555 36.9979 74.9551C36.3768 75.0781 35.4774 75.1396 34.2996 75.1396H32.6033V80H30.0018ZM43.8076 80V67.1152H47.9824C49.5645 67.1152 50.5957 67.1797 51.0762 67.3086C51.8145 67.502 52.4326 67.9238 52.9307 68.5742C53.4287 69.2188 53.6777 70.0537 53.6777 71.0791C53.6777 71.8701 53.5342 72.5352 53.2471 73.0742C52.96 73.6133 52.5938 74.0381 52.1484 74.3486C51.709 74.6533 51.2607 74.8555 50.8037 74.9551C50.1826 75.0781 49.2832 75.1396 48.1055 75.1396H46.4092V80H43.8076ZM60.5139 69.2949V80H63.1154V69.2949H66.9299V67.1152H56.6906V69.2949H60.5139Z" fill="#F36700"/>
<path d="M57 11H20V51H76V29H73V48H23V14H57V11Z" fill="#BFBFBF"/>
<path d="M32 17H26V23H32V17Z" fill="#BFBFBF"/>
<path d="M26 28H32V34H26V28Z" fill="#BFBFBF"/>
<path d="M32 39H26V45H32V39Z" fill="#BFBFBF"/>
<path d="M35 17H46V20H52V23H35V17Z" fill="#BFBFBF"/>
<path d="M57 28V29H62V31H50V34H35V28H57Z" fill="#BFBFBF"/>
<path d="M70 39H35V45H59V42H70V39Z" fill="#BFBFBF"/>
<path opacity="0.3" d="M56 30V1H57V29H86L87 30H56Z" fill="black"/>
</g>
<defs>
<clipPath id="clip0">
<rect width="96" height="96" fill="white"/>
</clipPath>
</defs>
</svg>
