<svg width="64" height="64" viewBox="0 0 64 64" fill="none" xmlns="http://www.w3.org/2000/svg">
<path d="M7 1H38L57 20V63H7V1Z" fill="white"/>
<path fill-rule="evenodd" clip-rule="evenodd" d="M7 63H57V20L38 1H7V63ZM38 0H6V64H58V20L38 0Z" fill="#BFBFBF"/>
<path d="M21.7355 46.8633V49.3008H22.6848C22.8562 49.3008 23.0134 49.2979 23.1563 49.292L23.2876 49.2861C23.4341 49.2773 23.5635 49.2656 23.6758 49.251C23.838 49.2295 23.9647 49.2012 24.0558 49.166C24.2863 49.0762 24.466 48.9355 24.5949 48.7441C24.7277 48.5527 24.7941 48.3301 24.7941 48.0762C24.7941 47.7637 24.7023 47.5059 24.5187 47.3027C24.3351 47.0996 24.1027 46.9727 23.8215 46.9219C23.7504 46.9082 23.6548 46.8975 23.5346 46.8887L23.4263 46.8828C23.3715 46.8789 23.3127 46.876 23.2497 46.874C23.0611 46.8672 22.8356 46.8633 22.5734 46.8633H21.7355Z" fill="#F36700"/>
<path d="M30.9395 46.8633V49.3008H31.8887C32.5723 49.3008 33.0293 49.2559 33.2598 49.166C33.4902 49.0762 33.6699 48.9355 33.7988 48.7441C33.9316 48.5527 33.998 48.3301 33.998 48.0762C33.998 47.7637 33.9062 47.5059 33.7227 47.3027C33.6316 47.2021 33.5285 47.1201 33.4134 47.0566C33.2964 46.9922 33.1671 46.9473 33.0254 46.9219C32.8184 46.8828 32.4023 46.8633 31.7773 46.8633H30.9395Z" fill="#F36700"/>
<path fill-rule="evenodd" clip-rule="evenodd" d="M15 39C13.8954 39 13 39.8955 13 41V57C13 58.1045 13.8954 59 15 59H49C50.1046 59 51 58.1045 51 57V41C51 39.8955 50.1046 39 49 39H15ZM20.0012 54V45.4102H22.7844C23.8391 45.4102 24.5266 45.4531 24.8469 45.5391C25.3391 45.668 25.7512 45.9492 26.0832 46.3828C26.4152 46.8125 26.5812 47.3691 26.5812 48.0527C26.5812 48.5801 26.4855 49.0234 26.2941 49.3828C26.1027 49.7422 25.8586 50.0254 25.5617 50.2324C25.2687 50.4355 24.9699 50.5703 24.6652 50.6367C24.2512 50.7188 23.6516 50.7598 22.8664 50.7598H21.7355V54H20.0012ZM29.2051 54V45.4102H31.9883C33.043 45.4102 33.7305 45.4531 34.0508 45.5391C34.543 45.668 34.9551 45.9492 35.2871 46.3828C35.6191 46.8125 35.7852 47.3691 35.7852 48.0527C35.7852 48.5801 35.6895 49.0234 35.498 49.3828C35.3066 49.7422 35.0625 50.0254 34.7656 50.2324C34.4727 50.4355 34.1738 50.5703 33.8691 50.6367C33.4551 50.7188 32.8555 50.7598 32.0703 50.7598H30.9395V54H29.2051ZM40.3426 46.8633V54H42.0769V46.8633H44.6199V45.4102H37.7937V46.8633H40.3426Z" fill="#F36700"/>
<path fill-rule="evenodd" clip-rule="evenodd" d="M13 9H38V11H15V33H49V19H51V35H13V9Z" fill="#BFBFBF"/>
<path d="M17 31V27H21V31H17Z" fill="#BFBFBF"/>
<path d="M21 24H17V20H21V24Z" fill="#BFBFBF"/>
<path d="M17 13V17H21V13H17Z" fill="#BFBFBF"/>
<path d="M23 13V17H34V15H30V13H23Z" fill="#BFBFBF"/>
<path d="M41 20H23V24H33V22H41V20Z" fill="#BFBFBF"/>
<path d="M23 31V27H47V29H39V31H23Z" fill="#BFBFBF"/>
<path opacity="0.3" d="M37 20V1H38V19H57L58 20H37Z" fill="black"/>
</svg>
