<svg width="64" height="64" viewBox="0 0 64 64" fill="none" xmlns="http://www.w3.org/2000/svg">
<path d="M7 1H38L57 20V63H7V1Z" fill="white"/>
<path fill-rule="evenodd" clip-rule="evenodd" d="M7 63H57V20L38 1H7V63ZM38 0H6V64H58V20L38 0Z" fill="#BFBFBF"/>
<path d="M18.9336 48.3008V45.8633H19.7715C20.3965 45.8633 20.8125 45.8828 21.0195 45.9219C21.3008 45.9727 21.5332 46.0996 21.7168 46.3027C21.9004 46.5059 21.9922 46.7637 21.9922 47.0762C21.9922 47.3301 21.9258 47.5527 21.793 47.7441C21.6641 47.9355 21.4844 48.0762 21.2539 48.166C21.0234 48.2559 20.5664 48.3008 19.8828 48.3008H18.9336Z" fill="#F36700"/>
<path d="M26.9375 48.3008V45.8633H27.7754C28.4004 45.8633 28.8164 45.8828 29.0234 45.9219C29.0723 45.9307 29.1196 45.9414 29.1655 45.9551C29.2048 45.9668 29.2432 45.9805 29.2803 45.9951C29.3613 46.0273 29.4373 46.0674 29.5081 46.1162L29.5498 46.1465L29.6035 46.1895C29.6445 46.2236 29.6836 46.2617 29.7207 46.3027C29.9043 46.5059 29.9961 46.7637 29.9961 47.0762C29.9961 47.3301 29.9297 47.5527 29.7969 47.7441C29.668 47.9355 29.4883 48.0762 29.2578 48.166C29.1184 48.2207 28.8962 48.2588 28.5911 48.2803C28.5022 48.2861 28.4062 48.291 28.3035 48.2949C28.1753 48.2988 28.0364 48.3008 27.8867 48.3008H26.9375Z" fill="#F36700"/>
<path fill-rule="evenodd" clip-rule="evenodd" d="M15 39C13.8955 39 13 39.8955 13 41V57C13 58.1045 13.8955 59 15 59H49C50.1045 59 51 58.1045 51 57V41C51 39.8955 50.1045 39 49 39H15ZM17.1992 44.4102V53H18.9336V49.7598H20.0645C20.8496 49.7598 21.4492 49.7188 21.8633 49.6367C22.168 49.5703 22.4668 49.4355 22.7598 49.2324C23.0566 49.0254 23.3008 48.7422 23.4922 48.3828C23.6106 48.1602 23.6924 47.9053 23.7375 47.6191C23.7654 47.4424 23.7793 47.2539 23.7793 47.0527C23.7793 46.3691 23.6133 45.8125 23.2812 45.3828C23.0967 45.1416 22.8875 44.9482 22.6536 44.8008C22.4666 44.6836 22.2637 44.5967 22.0449 44.5391C21.7246 44.4531 21.0371 44.4102 19.9824 44.4102H17.1992ZM25.2031 44.4102V53H26.9375V49.7598H28.0684C28.8535 49.7598 29.4531 49.7188 29.8672 49.6367C30.1719 49.5703 30.4707 49.4355 30.7637 49.2324C31.0605 49.0254 31.3047 48.7422 31.4961 48.3828C31.6284 48.1338 31.7151 47.8457 31.7559 47.5166C31.7742 47.3701 31.7832 47.2158 31.7832 47.0527C31.7832 46.3691 31.6172 45.8125 31.2852 45.3828C30.9531 44.9492 30.541 44.668 30.0488 44.5391C29.7285 44.4531 29.041 44.4102 27.9863 44.4102H25.2031ZM35.1406 53V45.8633H32.5918V44.4102H39.418V45.8633H36.875V53H35.1406ZM42.6055 48.5176L39.6699 53H41.75L43.6602 50.0293L45.5645 53H47.6562L44.7207 48.582L47.3926 44.4102H45.3828L43.6953 47.1699L41.9727 44.4102H39.9453L42.6055 48.5176Z" fill="#F36700"/>
<path fill-rule="evenodd" clip-rule="evenodd" d="M13 9H38V11H15V33H49V19H51V35H13V9Z" fill="#BFBFBF"/>
<path d="M17 31V27H21V31H17Z" fill="#BFBFBF"/>
<path d="M21 24H17V20H21V24Z" fill="#BFBFBF"/>
<path d="M17 13V17H21V13H17Z" fill="#BFBFBF"/>
<path d="M23 13V17H34V15H30V13H23Z" fill="#BFBFBF"/>
<path d="M41 20H23V24H33V22H41V20Z" fill="#BFBFBF"/>
<path d="M23 31V27H47V29H39V31H23Z" fill="#BFBFBF"/>
<path opacity="0.3" d="M37 20V1H38V19H57L58 20H37Z" fill="black"/>
</svg>
