<svg width="96" height="96" viewBox="0 0 96 96" fill="none" xmlns="http://www.w3.org/2000/svg">
<g clip-path="url(#clip0)">
<path d="M10 1H57L86 30V95H10V1Z" fill="white"/>
<path d="M28.4004 72.9512V69.2949H29.6572C30.0483 69.2949 30.3848 69.2998 30.6667 69.3105C31.0608 69.3252 31.3484 69.3486 31.5293 69.3828C31.9512 69.459 32.2998 69.6494 32.5752 69.9541C32.8506 70.2588 32.9883 70.6455 32.9883 71.1143C32.9883 71.4951 32.8887 71.8291 32.6895 72.1162C32.6233 72.2148 32.5481 72.3037 32.4639 72.3848C32.3025 72.5391 32.1082 72.6602 31.8809 72.749C31.5352 72.8838 30.8496 72.9512 29.8242 72.9512H28.4004Z" fill="#F36700"/>
<path d="M40.4062 72.9512V69.2949H41.6631C41.9453 69.2949 42.1992 69.2979 42.4248 69.3027L42.6819 69.3105C43.071 69.3252 43.3555 69.3486 43.5352 69.3828C43.957 69.459 44.3057 69.6494 44.5811 69.9541C44.6794 70.0625 44.7603 70.1816 44.8235 70.3115C44.9373 70.5449 44.9941 70.8125 44.9941 71.1143C44.9941 71.4951 44.8945 71.8291 44.6953 72.1162C44.6482 72.1865 44.5969 72.251 44.541 72.3115C44.4749 72.3838 44.4026 72.4492 44.324 72.5088C44.1951 72.6055 44.0493 72.6855 43.8867 72.749C43.541 72.8838 42.8555 72.9512 41.8301 72.9512H40.4062Z" fill="#F36700"/>
<path fill-rule="evenodd" clip-rule="evenodd" d="M23 58C21.3433 58 20 59.3428 20 61V86C20 87.6572 21.3433 89 23 89H73C74.6567 89 76 87.6572 76 86V61C76 59.3428 74.6567 58 73 58H23ZM25.7988 67.1152V80H28.4004V75.1396H30.0967C31.2744 75.1396 32.1738 75.0781 32.7949 74.9551C33.252 74.8555 33.7002 74.6533 34.1396 74.3486C34.585 74.0381 34.9512 73.6133 35.2383 73.0742C35.5254 72.5352 35.6689 71.8701 35.6689 71.0791C35.6689 70.0537 35.4199 69.2188 34.9219 68.5742C34.4238 67.9238 33.8057 67.502 33.0674 67.3086C32.7603 67.2266 32.2278 67.1699 31.47 67.1406C31.0427 67.124 30.5439 67.1152 29.9736 67.1152H25.7988ZM37.8047 67.1152V80H40.4062V75.1396H42.1025C43.2803 75.1396 44.1797 75.0781 44.8008 74.9551C45.2578 74.8555 45.7061 74.6533 46.1455 74.3486C46.3704 74.1924 46.575 74.0059 46.7595 73.791C46.7996 73.7441 46.8384 73.6973 46.8765 73.6465L46.9084 73.6055L46.9873 73.4961L47.0483 73.4053C47.1172 73.2998 47.1826 73.1895 47.2441 73.0742C47.5312 72.5352 47.6748 71.8701 47.6748 71.0791C47.6748 70.0537 47.4258 69.2188 46.9277 68.5742C46.4297 67.9238 45.8115 67.502 45.0732 67.3086C44.8989 67.2617 44.6523 67.2236 44.3333 67.1943C43.7722 67.1416 42.9878 67.1152 41.9795 67.1152H37.8047ZM52.7109 80V69.2949H48.8877V67.1152H59.127V69.2949H55.3125V80H52.7109ZM63.9082 73.2764L59.5049 80H62.625L65.4902 75.5439L68.3467 80H71.4844L67.0811 73.373L71.0889 67.1152H68.0742L65.543 71.2549L62.959 67.1152H59.918L63.9082 73.2764Z" fill="#F36700"/>
<path d="M57 11H20V51H76V29H73V48H23V14H57V11Z" fill="#BFBFBF"/>
<path d="M32 17H26V23H32V17Z" fill="#BFBFBF"/>
<path d="M26 28H32V34H26V28Z" fill="#BFBFBF"/>
<path d="M32 39H26V45H32V39Z" fill="#BFBFBF"/>
<path d="M35 17H46V20H52V23H35V17Z" fill="#BFBFBF"/>
<path d="M57 28V29H62V31H50V34H35V28H57Z" fill="#BFBFBF"/>
<path d="M70 39H35V45H59V42H70V39Z" fill="#BFBFBF"/>
<path opacity="0.3" d="M56 30V1H57V29H86L87 30H56Z" fill="black"/>
</g>
<defs>
<clipPath id="clip0">
<rect width="96" height="96" fill="white"/>
</clipPath>
</defs>
</svg>
