<svg width="80" height="90" viewBox="0 0 80 90" fill="none" xmlns="http://www.w3.org/2000/svg">
<path d="M11 0.5H53.7578C54.3379 0.500105 54.897 0.701925 55.3418 1.06641L55.5254 1.23242L71.7676 17.4746C72.2363 17.9433 72.4999 18.5793 72.5 19.2422V86C72.5 87.933 70.933 89.5 69 89.5H11C9.067 89.5 7.5 87.933 7.5 86V4C7.5 2.067 9.067 0.5 11 0.5Z" fill="white" stroke="#BBBBBB"/>
<path d="M54.5039 1V13.7039C54.5039 15.3841 54.5039 16.2241 54.8309 16.8659C55.1185 17.4304 55.5774 17.8893 56.1419 18.1769C56.7837 18.5039 57.6237 18.5039 59.3039 18.5039H72.0078" stroke="#BBBBBB"/>
<path d="M23 39.75C22.7239 39.75 22.4991 39.5261 22.5091 39.2501C22.5654 37.6971 22.8841 36.1656 23.4515 34.7273C24.0797 33.1349 25.0004 31.688 26.1612 30.4692C27.3219 29.2505 28.6999 28.2837 30.2165 27.6241C31.5789 27.0315 33.0292 26.6973 34.5001 26.6355C34.776 26.6239 35 26.8489 35 27.125L35 39.25C35 39.5261 34.7761 39.75 34.5 39.75H23Z" fill="#F8C9A4"/>
<path d="M25.5 45C25.2239 45 24.9992 45.224 25.0076 45.5C25.0965 48.44 25.968 51.2989 27.528 53.7502C29.1762 56.3403 31.5189 58.359 34.2597 59.5511C37.0006 60.7432 40.0166 61.0551 42.9264 60.4474C45.8361 59.8397 48.5088 58.3396 50.6066 56.1369C52.7044 53.9343 54.133 51.1279 54.7118 48.0727C55.2906 45.0175 54.9935 41.8507 53.8582 38.9727C52.7229 36.0948 50.8003 33.635 48.3336 31.9044C46.0056 30.2711 43.2916 29.3565 40.4999 29.2587C40.224 29.2491 40 29.4739 40 29.75V44.5C40 44.7761 39.7761 45 39.5 45H25.5Z" fill="#F8C9A4"/>
<path d="M40 54.6C40 51.2397 40 49.5595 40.654 48.2761C41.2292 47.1471 42.1471 46.2292 43.2761 45.654C44.5595 45 46.2397 45 49.6 45H60.4C63.7603 45 65.4405 45 66.7239 45.654C67.8529 46.2292 68.7708 47.1471 69.346 48.2761C70 49.5595 70 51.2397 70 54.6V66.9C70 70.2603 70 71.9405 69.346 73.2239C68.7708 74.3529 67.8529 75.2708 66.7239 75.846C65.4405 76.5 63.7603 76.5 60.4 76.5H49.6C46.2397 76.5 44.5595 76.5 43.2761 75.846C42.1471 75.2708 41.2292 74.3529 40.654 73.2239C40 71.9405 40 70.2603 40 66.9V54.6Z" fill="#ED771C"/>
<path d="M55.033 52.875C57.2937 52.875 58.9604 53.3162 60.033 54.1985C61.1221 55.0662 61.6666 55.9786 61.6666 57.5374C61.6666 58.2433 61.5511 58.9198 61.3201 59.5668C61.0891 60.1992 60.7013 60.7654 60.1567 61.2654C59.6287 61.7654 58.9274 62.1624 58.0528 62.4565C57.1947 62.7507 56.1303 62.8977 54.8597 62.8977H53.3745V68.625H49.1666V52.875H55.033ZM54.8844 55.9412H53.3745V60.1324H54.4884C55.066 60.1324 55.5693 60.0588 55.9983 59.9118C56.4439 59.7647 56.7904 59.5294 57.0379 59.2059C57.2854 58.8824 57.4092 58.4632 57.4092 57.9485C57.4092 57.3015 57.2029 56.8088 56.7904 56.4706C56.3778 56.1176 55.7425 55.9412 54.8844 55.9412Z" fill="white"/>
</svg>
