<svg width="32" height="32" viewBox="0 0 32 32" fill="none" xmlns="http://www.w3.org/2000/svg">
<g clip-path="url(#clip0_3421_1853)">
<path d="M7 1.5H20.5859C20.6854 1.50003 20.7818 1.52961 20.8633 1.58398L20.9395 1.64648L26.3535 7.06055C26.4472 7.15428 26.5 7.28151 26.5 7.41406V29C26.5 29.8284 25.8284 30.5 25 30.5H7C6.17157 30.5 5.5 29.8284 5.5 29V3C5.5 2.17157 6.17157 1.5 7 1.5Z" fill="white" stroke="#BBBBBB"/>
<path d="M20.5 2V5.1C20.5 5.94008 20.5 6.36012 20.6635 6.68099C20.8073 6.96323 21.0368 7.1927 21.319 7.33651C21.6399 7.5 22.0599 7.5 22.9 7.5H26" stroke="#BBBBBB"/>
<path opacity="0.4" d="M9.5 14C9.22386 14 8.99741 13.7756 9.02498 13.5008C9.07368 13.0155 9.19324 12.5389 9.3806 12.0866C9.63188 11.48 10.0002 10.9288 10.4645 10.4645C10.9288 10.0002 11.48 9.63188 12.0866 9.3806C12.5389 9.19324 13.0155 9.07368 13.5008 9.02498C13.7756 8.99741 14 9.22386 14 9.5V13.5C14 13.7761 13.7761 14 13.5 14H9.5Z" fill="#ED771C"/>
<path d="M10.5 16C10.2239 16 9.99784 16.2243 10.0208 16.4994C10.1052 17.51 10.4448 18.4857 11.0112 19.3334C11.6705 20.3201 12.6075 21.0892 13.7039 21.5433C14.8003 21.9974 16.0067 22.1162 17.1705 21.8847C18.3344 21.6532 19.4035 21.0818 20.2426 20.2426C21.0818 19.4035 21.6532 18.3344 21.8847 17.1705C22.1162 16.0067 21.9974 14.8003 21.5433 13.7039C21.0892 12.6075 20.3201 11.6705 19.3334 11.0112C18.4857 10.4448 17.51 10.1052 16.4994 10.0208C16.2243 9.99783 16 10.2239 16 10.5V15.5C16 15.7761 15.7761 16 15.5 16H10.5Z" fill="#F8C9A4"/>
<path d="M16 19.2C16 18.0799 16 17.5198 16.218 17.092C16.4097 16.7157 16.7157 16.4097 17.092 16.218C17.5198 16 18.0799 16 19.2 16H24.8C25.9201 16 26.4802 16 26.908 16.218C27.2843 16.4097 27.5903 16.7157 27.782 17.092C28 17.5198 28 18.0799 28 19.2V24.8C28 25.9201 28 26.4802 27.782 26.908C27.5903 27.2843 27.2843 27.5903 26.908 27.782C26.4802 28 25.9201 28 24.8 28H19.2C18.0799 28 17.5198 28 17.092 27.782C16.7157 27.5903 16.4097 27.2843 16.218 26.908C16 26.4802 16 25.9201 16 24.8V19.2Z" fill="#ED771C"/>
<path d="M22.3465 19C23.2508 19 23.9175 19.1681 24.3465 19.5042C24.7822 19.8347 25 20.2969 25 20.8908C25 21.1597 24.9538 21.4846 24.8614 21.7311C24.769 21.972 24.6139 22.1877 24.396 22.3782C24.1848 22.5686 23.9043 22.7199 23.5545 22.8319C23.2112 22.944 22.7855 23 22.2772 23H21.5V25H20V19H22.3465ZM22.5446 20.1681H21.5V21.7647H22.3861C22.6172 21.7647 22.8185 21.7367 22.9901 21.6807C23.1683 21.6246 23.3069 21.535 23.4059 21.4118C23.5049 21.2885 23.5545 21.1289 23.5545 20.9328C23.5545 20.6863 23.4719 20.4986 23.3069 20.3697C23.1419 20.2353 22.8878 20.1681 22.5446 20.1681Z" fill="white"/>
</g>
<defs>
<clipPath id="clip0_3421_1853">
<rect width="32" height="32" fill="white"/>
</clipPath>
</defs>
</svg>
