<svg width="80" height="90" viewBox="0 0 80 90" fill="none" xmlns="http://www.w3.org/2000/svg">
<path d="M11 0.5H53.7578C54.3379 0.500105 54.897 0.701925 55.3418 1.06641L55.5254 1.23242L71.7676 17.4746C72.2363 17.9433 72.4999 18.5793 72.5 19.2422V86C72.5 87.933 70.933 89.5 69 89.5H11C9.067 89.5 7.5 87.933 7.5 86V4C7.5 2.067 9.067 0.5 11 0.5Z" fill="white" stroke="#BBBBBB"/>
<path d="M54.5039 1V13.7039C54.5039 15.3841 54.5039 16.2241 54.8309 16.8659C55.1185 17.4304 55.5774 17.8893 56.1419 18.1769C56.7837 18.5039 57.6237 18.5039 59.3039 18.5039H72.0078" stroke="#BBBBBB"/>
<path d="M43 57C44.6569 57 46 58.3431 46 60C46 61.6569 44.6569 63 43 63H22C20.3431 63 19 61.6569 19 60C19 58.3431 20.3431 57 22 57H43ZM58 45C59.6569 45 61 46.3431 61 48C61 49.6569 59.6569 51 58 51H22C20.3431 51 19 49.6569 19 48C19 46.3431 20.3431 45 22 45H58ZM58 33C59.6569 33 61 34.3431 61 36C61 37.6569 59.6569 39 58 39H22C20.3431 39 19 37.6569 19 36C19 34.3431 20.3431 33 22 33H58Z" fill="#A1A1A1"/>
</svg>
