<svg width="32" height="32" viewBox="0 0 32 32" fill="none" xmlns="http://www.w3.org/2000/svg">
<g clip-path="url(#clip0_3421_1873)">
<path d="M7 1.5H20.5859C20.6854 1.50003 20.7818 1.52961 20.8633 1.58398L20.9395 1.64648L26.3535 7.06055C26.4472 7.15428 26.5 7.28151 26.5 7.41406V29C26.5 29.8284 25.8284 30.5 25 30.5H7C6.17157 30.5 5.5 29.8284 5.5 29V3C5.5 2.17157 6.17157 1.5 7 1.5Z" fill="white" stroke="#BBBBBB"/>
<path d="M20.5 2V5.1C20.5 5.94008 20.5 6.36012 20.6635 6.68099C20.8073 6.96323 21.0368 7.1927 21.319 7.33651C21.6399 7.5 22.0599 7.5 22.9 7.5H26" stroke="#BBBBBB"/>
<path d="M17 20C17.5523 20 18 20.4477 18 21C18 21.5523 17.5523 22 17 22H10C9.44772 22 9 21.5523 9 21C9 20.4477 9.44772 20 10 20H17ZM22 16C22.5523 16 23 16.4477 23 17C23 17.5523 22.5523 18 22 18H10C9.44772 18 9 17.5523 9 17C9 16.4477 9.44772 16 10 16H22ZM22 12C22.5523 12 23 12.4477 23 13C23 13.5523 22.5523 14 22 14H10C9.44772 14 9 13.5523 9 13C9 12.4477 9.44772 12 10 12H22Z" fill="#A1A1A1"/>
</g>
<defs>
<clipPath id="clip0_3421_1873">
<rect width="32" height="32" fill="white"/>
</clipPath>
</defs>
</svg>
