<svg width="64" height="64" viewBox="0 0 64 64" fill="none" xmlns="http://www.w3.org/2000/svg">
<path d="M7 1H38L57 20V63H7V1Z" fill="white"/>
<path fill-rule="evenodd" clip-rule="evenodd" d="M7 63H57V20L38 1H7V63ZM38 0H6V64H58V20L38 0Z" fill="#BFBFBF"/>
<path fill-rule="evenodd" clip-rule="evenodd" d="M15 39C13.8954 39 13 39.8955 13 41V57C13 58.1045 13.8954 59 15 59H49C50.1046 59 51 58.1045 51 57V41C51 39.8955 50.1046 39 49 39H15ZM38.989 51.041L37.3015 51.2051C37.4148 52.166 37.7625 52.8984 38.3445 53.4023C38.9265 53.9023 39.7605 54.1523 40.8465 54.1523C41.5926 54.1523 42.2156 54.0488 42.7156 53.8418C43.2156 53.6309 43.6023 53.3105 43.8758 52.8809C43.943 52.7754 44.002 52.668 44.0526 52.5586C44.1362 52.3779 44.1973 52.1924 44.236 52.002C44.2693 51.8379 44.2859 51.6699 44.2859 51.498C44.2859 50.9551 44.1707 50.5 43.9402 50.1328C43.7967 49.8975 43.6172 49.6943 43.4016 49.5234C43.2768 49.4248 43.1399 49.3369 42.991 49.2598C42.5887 49.0449 41.9656 48.8379 41.1219 48.6387C40.2781 48.4395 39.7469 48.248 39.5281 48.0645C39.3562 47.9199 39.2703 47.7461 39.2703 47.543C39.2703 47.3203 39.3621 47.1426 39.5457 47.0098C39.618 46.957 39.6972 46.9111 39.7835 46.8721C39.8458 46.8438 39.9117 46.8193 39.9812 46.7979C40.0218 46.7852 40.0636 46.7734 40.1066 46.7637C40.1835 46.7461 40.2643 46.7314 40.3492 46.7217C40.4681 46.707 40.5948 46.6992 40.7293 46.6992C41.0211 46.6992 41.269 46.7344 41.473 46.8047C41.5418 46.8281 41.6056 46.8555 41.6643 46.8867L41.7398 46.9307C41.7697 46.9502 41.7981 46.9707 41.825 46.9922C42.0711 47.1836 42.2312 47.5 42.3055 47.9414L44.0398 47.8652C44.0125 47.0762 43.7254 46.4453 43.1785 45.9727C42.6355 45.5 41.825 45.2637 40.7469 45.2637C40.0867 45.2637 39.5222 45.3633 39.0535 45.5625C38.5887 45.7617 38.2312 46.0527 37.9812 46.4355C37.7351 46.8145 37.6121 47.2227 37.6121 47.6602C37.6121 48.3398 37.8758 48.916 38.4031 49.3887C38.7781 49.7246 39.4305 50.0078 40.3601 50.2383C41.0828 50.418 41.5457 50.543 41.7488 50.6133C42.0457 50.7188 42.2527 50.8438 42.3699 50.9883C42.491 51.1289 42.5515 51.3008 42.5515 51.5039C42.5515 51.8203 42.409 52.0977 42.1238 52.3359C41.8426 52.5703 41.4226 52.6875 40.864 52.6875C40.3367 52.6875 39.9168 52.5547 39.6043 52.2891C39.2957 52.0234 39.0906 51.6074 38.989 51.041ZM19.1281 54L22.0637 49.5176L19.4035 45.4102H21.4308L23.1535 48.1699L24.841 45.4102H26.8508L24.1789 49.582L27.1144 54H25.0226L23.1183 51.0293L21.2082 54H19.1281ZM29.252 54V45.4805H30.9863V52.5527H35.2988V54H29.252Z" fill="#6AAA1E"/>
<path fill-rule="evenodd" clip-rule="evenodd" d="M13 7H38V19H51V34H13V7ZM49 21H39V25H49V21ZM49 27H39V32H49V27ZM37 32V27H28V32H37ZM26 32V27H15V32H26ZM15 25H26V21H15V25ZM15 19H26V15H15V19ZM15 13H26V9H15V13ZM28 9V13H37V9H28ZM37 15H28V19H37V15ZM37 21H28V25H37V21Z" fill="#BFBFBF"/>
<path opacity="0.3" d="M37 20V1H38V19H57L58 20H37Z" fill="black"/>
</svg>
