<svg width="96" height="96" viewBox="0 0 96 96" fill="none" xmlns="http://www.w3.org/2000/svg">
<g clip-path="url(#clip0)">
<path d="M10 1H57L86 30V95H10V1Z" fill="white"/>
<path fill-rule="evenodd" clip-rule="evenodd" d="M23 58C21.3431 58 20 59.3428 20 61V86C20 87.6572 21.3431 89 23 89H73C74.6569 89 76 87.6572 76 86V61C76 59.3428 74.6569 58 73 58H23ZM58.4836 75.5615L55.9523 75.8076C56.1223 77.249 56.6437 78.3477 57.5168 79.1035C58.3898 79.8535 59.6408 80.2285 61.2697 80.2285C62.3889 80.2285 63.3234 80.0732 64.0734 79.7627C64.8234 79.4463 65.4035 78.9658 65.8137 78.3213C66.2238 77.6768 66.4289 76.9854 66.4289 76.2471C66.4289 75.4326 66.256 74.75 65.9103 74.1992C65.5705 73.6426 65.0959 73.2061 64.4865 72.8896C63.883 72.5674 62.9484 72.2568 61.6828 71.958C60.4172 71.6592 59.6203 71.3721 59.2922 71.0967C59.0344 70.8799 58.9055 70.6191 58.9055 70.3145C58.9055 69.9805 59.0432 69.7139 59.3185 69.5146C59.7463 69.2041 60.3381 69.0488 61.0939 69.0488C61.8264 69.0488 62.3742 69.1953 62.7375 69.4883C63.1066 69.7754 63.3469 70.25 63.4582 70.9121L66.0598 70.7979C66.0187 69.6143 65.5881 68.668 64.7678 67.959C63.9533 67.25 62.7375 66.8955 61.1203 66.8955C60.1301 66.8955 59.2834 67.0449 58.5803 67.3438C57.883 67.6426 57.3469 68.0791 56.9719 68.6533C56.6027 69.2217 56.4182 69.834 56.4182 70.4902C56.4182 71.5098 56.8137 72.374 57.6047 73.083C58.1672 73.5869 59.1457 74.0117 60.5402 74.3574C61.6242 74.627 62.3185 74.8145 62.6232 74.9199C63.0685 75.0781 63.3791 75.2656 63.5549 75.4824C63.7365 75.6934 63.8273 75.9512 63.8273 76.2559C63.8273 76.7305 63.6135 77.1465 63.1857 77.5039C62.7639 77.8555 62.134 78.0312 61.2961 78.0312C60.5051 78.0312 59.8752 77.832 59.4064 77.4336C58.9435 77.0352 58.6359 76.4111 58.4836 75.5615ZM28.6922 80L33.0955 73.2764L29.1053 67.1152H32.1463L34.7303 71.2549L37.2615 67.1152H40.2762L36.2684 73.373L40.6717 80H37.534L34.6776 75.5439L31.8123 80H28.6922ZM43.8779 80V67.2207H46.4795V77.8291H52.9482V80H43.8779Z" fill="#6AAA1E"/>
<path fill-rule="evenodd" clip-rule="evenodd" d="M57 11H20V50H76V29H57V11ZM73 41V47H58V41H73ZM73 32V38H58V32H73ZM55 14H41V20H55V14ZM55 23H41V29H55V23ZM55 32H41V38H55V32ZM55 41H41V47H55V41ZM23 14H38V20H23V14ZM23 23H38V29H23V23ZM23 32H38V38H23V32ZM23 41H38V47H23V41Z" fill="#BFBFBF"/>
<path opacity="0.3" d="M56 30V1H57V29H86L87 30H56Z" fill="black"/>
</g>
<defs>
<clipPath id="clip0">
<rect width="96" height="96" fill="white"/>
</clipPath>
</defs>
</svg>
