<svg width="64" height="64" viewBox="0 0 64 64" fill="none" xmlns="http://www.w3.org/2000/svg">
<path d="M7 1H38L57 20V63H7V1Z" fill="white"/>
<path fill-rule="evenodd" clip-rule="evenodd" d="M7 63H57V20L38 1H7V63ZM38 0H6V64H58V20L38 0Z" fill="#BFBFBF"/>
<path fill-rule="evenodd" clip-rule="evenodd" d="M15 39C13.8954 39 13 39.8955 13 41V57C13 58.1045 13.8954 59 15 59H49C50.1046 59 51 58.1045 51 57V41C51 39.8955 50.1046 39 49 39H15ZM32.0996 51.2051L33.7871 51.041C33.8078 51.1562 33.8328 51.2656 33.8621 51.3691C33.8881 51.46 33.9174 51.5459 33.95 51.6279C34.0616 51.9053 34.2123 52.126 34.4023 52.2891C34.7148 52.5547 35.1348 52.6875 35.6621 52.6875C36.2207 52.6875 36.6406 52.5703 36.9219 52.3359L36.9948 52.2715L37.0649 52.2002C37.0907 52.1719 37.1147 52.1436 37.137 52.1143C37.168 52.0742 37.1955 52.0332 37.2197 51.9912C37.3063 51.8408 37.3496 51.6787 37.3496 51.5039C37.3496 51.3008 37.2891 51.1289 37.168 50.9883C37.1497 50.9658 37.1293 50.9434 37.1067 50.9219C37.0825 50.8984 37.0557 50.876 37.0264 50.8545C36.9078 50.7656 36.7479 50.6846 36.5469 50.6133C36.4237 50.5703 36.205 50.5078 35.8909 50.4248C35.6869 50.3711 35.4427 50.3086 35.1582 50.2383C34.2285 50.0078 33.5762 49.7246 33.2012 49.3887C32.6738 48.916 32.4102 48.3398 32.4102 47.6602C32.4102 47.2227 32.5332 46.8145 32.7793 46.4355C33.0293 46.0527 33.3867 45.7617 33.8516 45.5625C34.3203 45.3633 34.8848 45.2637 35.5449 45.2637C36.623 45.2637 37.4336 45.5 37.9766 45.9727C38.5234 46.4453 38.8105 47.0762 38.8379 47.8652L37.1035 47.9414C37.0293 47.5 36.8691 47.1836 36.623 46.9922C36.3809 46.7969 36.0156 46.6992 35.5273 46.6992C35.2805 46.6992 35.0599 46.7236 34.8656 46.7734C34.6632 46.8252 34.4892 46.9043 34.3438 47.0098C34.1602 47.1426 34.0684 47.3203 34.0684 47.543C34.0684 47.6074 34.0771 47.6689 34.0944 47.7275L34.1165 47.79C34.1326 47.8281 34.1527 47.8652 34.1768 47.9014C34.216 47.959 34.2658 48.0137 34.3262 48.0645C34.5449 48.248 35.0762 48.4395 35.9199 48.6387C36.7637 48.8379 37.3867 49.0449 37.7891 49.2598C38.1953 49.4707 38.5117 49.7617 38.7383 50.1328C38.8133 50.252 38.876 50.3809 38.9266 50.5195C39.0315 50.8057 39.084 51.1318 39.084 51.498C39.084 51.9902 38.9473 52.4512 38.6738 52.8809C38.4004 53.3105 38.0137 53.6309 37.5137 53.8418C37.3646 53.9033 37.2047 53.9561 37.0338 54C36.8752 54.04 36.7073 54.0723 36.53 54.0967C36.2571 54.1338 35.9619 54.1523 35.6445 54.1523C34.5586 54.1523 33.7246 53.9023 33.1426 53.4023C32.5605 52.8984 32.2129 52.166 32.0996 51.2051ZM19.2617 49.5176L16.3262 54H18.4062L20.3164 51.0293L22.2207 54H24.3125L21.377 49.582L24.0488 45.4102H22.0391L20.3516 48.1699L18.6289 45.4102H16.6016L19.2617 49.5176ZM25.25 45.4805V54H31.2969V52.5527H26.9844V45.4805H25.25ZM42.6055 49.5176L39.6699 54H41.75L43.6602 51.0293L45.5645 54H47.6562L44.7207 49.582L47.3926 45.4102H45.3828L43.6953 48.1699L41.9727 45.4102H39.9453L42.6055 49.5176Z" fill="#6AAA1E"/>
<path fill-rule="evenodd" clip-rule="evenodd" d="M13 7H38V19H51V34H13V7ZM49 21H39V25H49V21ZM49 27H39V32H49V27ZM37 32V27H28V32H37ZM26 32V27H15V32H26ZM15 25H26V21H15V25ZM15 19H26V15H15V19ZM15 13H26V9H15V13ZM28 9V13H37V9H28ZM37 15H28V19H37V15ZM37 21H28V25H37V21Z" fill="#BFBFBF"/>
<path opacity="0.3" d="M37 20V1H38V19H57L58 20H37Z" fill="black"/>
</svg>
