<svg width="80" height="90" viewBox="0 0 80 90" fill="none" xmlns="http://www.w3.org/2000/svg">
<path d="M11 0.5H53.7578C54.3379 0.500105 54.897 0.701925 55.3418 1.06641L55.5254 1.23242L71.7676 17.4746C72.2363 17.9433 72.4999 18.5793 72.5 19.2422V86C72.5 87.933 70.933 89.5 69 89.5H11C9.067 89.5 7.5 87.933 7.5 86V4C7.5 2.067 9.067 0.5 11 0.5Z" fill="white" stroke="#BBBBBB"/>
<path d="M54.5039 1V13.7039C54.5039 15.3841 54.5039 16.2241 54.8309 16.8659C55.1185 17.4304 55.5774 17.8893 56.1419 18.1769C56.7837 18.5039 57.6237 18.5039 59.3039 18.5039H72.0078" stroke="#BBBBBB"/>
<path d="M34.875 55.5C36.3247 55.5 37.5 56.6753 37.5 58.125C37.5 59.5747 36.3247 60.75 34.875 60.75H25.125C23.6753 60.75 22.5 59.5747 22.5 58.125C22.5 56.6753 23.6753 55.5 25.125 55.5H34.875ZM34.875 45C36.3247 45 37.5 46.1753 37.5 47.625C37.5 49.0747 36.3247 50.25 34.875 50.25H25.125C23.6753 50.25 22.5 49.0747 22.5 47.625C22.5 46.1753 23.6753 45 25.125 45H34.875ZM34.875 34.5C36.3247 34.5 37.5 35.6753 37.5 37.125C37.5 38.5747 36.3247 39.75 34.875 39.75H25.125C23.6753 39.75 22.5 38.5747 22.5 37.125C22.5 35.6753 23.6753 34.5 25.125 34.5H34.875ZM54.875 34.5C56.3247 34.5 57.5 35.6753 57.5 37.125C57.5 38.5747 56.3247 39.75 54.875 39.75H45.125C43.6753 39.75 42.5 38.5747 42.5 37.125C42.5 35.6753 43.6753 34.5 45.125 34.5H54.875Z" fill="#B0D9AD"/>
<path d="M40 54.6C40 51.2397 40 49.5595 40.654 48.2761C41.2292 47.1471 42.1471 46.2292 43.2761 45.654C44.5595 45 46.2397 45 49.6 45H60.4C63.7603 45 65.4405 45 66.7239 45.654C67.8529 46.2292 68.7708 47.1471 69.346 48.2761C70 49.5595 70 51.2397 70 54.6V66.9C70 70.2603 70 71.9405 69.346 73.2239C68.7708 74.3529 67.8529 75.2708 66.7239 75.846C65.4405 76.5 63.7603 76.5 60.4 76.5H49.6C46.2397 76.5 44.5595 76.5 43.2761 75.846C42.1471 75.2708 41.2292 74.3529 40.654 73.2239C40 71.9405 40 70.2603 40 66.9V54.6Z" fill="#3AA133"/>
<path d="M64 70H58.887L54.8957 63.7479L50.9043 70H46L52.1826 60.7479L46 52H50.9304L55.0261 58.0504L59.0696 52H64L57.713 61.0504L64 70Z" fill="white"/>
</svg>
