<svg width="96" height="96" viewBox="0 0 96 96" fill="none" xmlns="http://www.w3.org/2000/svg">
<g clip-path="url(#clip0)">
<path d="M10 1H57L86 30V95H10V1Z" fill="white"/>
<path fill-rule="evenodd" clip-rule="evenodd" d="M23 58C21.3431 58 20 59.3428 20 61V86C20 87.6572 21.3431 89 23 89H73C74.6569 89 76 87.6572 76 86V61C76 59.3428 74.6569 58 73 58H23ZM48.1494 75.8076L50.6807 75.5615C50.833 76.4111 51.1406 77.0352 51.6035 77.4336C52.0723 77.832 52.7021 78.0312 53.4932 78.0312C54.3311 78.0312 54.9609 77.8555 55.3828 77.5039C55.8105 77.1465 56.0244 76.7305 56.0244 76.2559C56.0244 75.9512 55.9336 75.6934 55.752 75.4824C55.5762 75.2656 55.2656 75.0781 54.8203 74.9199C54.5156 74.8145 53.8213 74.627 52.7373 74.3574C51.3428 74.0117 50.3643 73.5869 49.8018 73.083C49.0107 72.374 48.6152 71.5098 48.6152 70.4902C48.6152 69.834 48.7998 69.2217 49.1689 68.6533C49.5439 68.0791 50.0801 67.6426 50.7773 67.3438C51.4805 67.0449 52.3271 66.8955 53.3174 66.8955C54.9346 66.8955 56.1504 67.25 56.9648 67.959C57.7852 68.668 58.2158 69.6143 58.2568 70.7979L55.6553 70.9121C55.5439 70.25 55.3037 69.7754 54.9346 69.4883C54.5713 69.1953 54.0234 69.0488 53.291 69.0488C52.5352 69.0488 51.9434 69.2041 51.5156 69.5146C51.4466 69.5645 51.3863 69.6182 51.3346 69.6768C51.2807 69.7383 51.2362 69.8037 51.2011 69.874C51.1354 70.0049 51.1025 70.1514 51.1025 70.3145C51.1025 70.6191 51.2314 70.8799 51.4893 71.0967C51.8174 71.3721 52.6143 71.6592 53.8799 71.958C55.1455 72.2568 56.0801 72.5674 56.6836 72.8896C57.293 73.2061 57.7676 73.6426 58.1074 74.1992C58.4531 74.75 58.626 75.4326 58.626 76.2471C58.626 76.9854 58.4209 77.6768 58.0107 78.3213C57.6006 78.9658 57.0205 79.4463 56.2705 79.7627C55.5205 80.0732 54.5859 80.2285 53.4668 80.2285C51.8379 80.2285 50.5869 79.8535 49.7139 79.1035C48.8408 78.3477 48.3193 77.249 48.1494 75.8076ZM28.8926 73.2764L24.4893 80H27.6094L30.4746 75.5439L33.3311 80H36.4688L32.0654 73.373L36.0732 67.1152H33.0586L30.5273 71.2549L27.9434 67.1152H24.9023L28.8926 73.2764ZM37.875 67.2207V80H46.9453V77.8291H40.4766V67.2207H37.875ZM63.9082 73.2764L59.5049 80H62.625L65.4902 75.5439L68.3467 80H71.4844L67.0811 73.373L71.0889 67.1152H68.0742L65.543 71.2549L62.959 67.1152H59.918L63.9082 73.2764Z" fill="#6AAA1E"/>
<path fill-rule="evenodd" clip-rule="evenodd" d="M57 11H20V50H76V29H57V11ZM73 41V47H58V41H73ZM73 32V38H58V32H73ZM55 14H41V20H55V14ZM55 23H41V29H55V23ZM55 32H41V38H55V32ZM55 41H41V47H55V41ZM23 14H38V20H23V14ZM23 23H38V29H23V23ZM23 32H38V38H23V32ZM23 41H38V47H23V41Z" fill="#BFBFBF"/>
<path opacity="0.3" d="M56 30V1H57V29H86L87 30H56Z" fill="black"/>
</g>
<defs>
<clipPath id="clip0">
<rect width="96" height="96" fill="white"/>
</clipPath>
</defs>
</svg>
